<?xml version="1.0" encoding="UTF-8" standalone="no"?>
<!-- Created with Inkscape (http://www.inkscape.org/) -->

<svg
   xmlns:dc="http://purl.org/dc/elements/1.1/"
   xmlns:cc="http://creativecommons.org/ns#"
   xmlns:rdf="http://www.w3.org/1999/02/22-rdf-syntax-ns#"
   xmlns:svg="http://www.w3.org/2000/svg"
   xmlns="http://www.w3.org/2000/svg"
   xmlns:sodipodi="http://sodipodi.sourceforge.net/DTD/sodipodi-0.dtd"
   xmlns:inkscape="http://www.inkscape.org/namespaces/inkscape"
   version="1.1"
   id="svg2"
   width="48"
   height="48"
   viewBox="0 0 48 48"
   sodipodi:docname="icon.svg"
   inkscape:version="0.92.2 (5c3e80d, 2017-08-06)">
  <metadata
     id="metadata8">
    <rdf:RDF>
      <cc:Work
         rdf:about="">
        <dc:format>image/svg+xml</dc:format>
        <dc:type
           rdf:resource="http://purl.org/dc/dcmitype/StillImage" />
        <dc:title></dc:title>
      </cc:Work>
    </rdf:RDF>
  </metadata>
  <defs
     id="defs6" />
  <sodipodi:namedview
     pagecolor="#ffffff"
     bordercolor="#666666"
     borderopacity="1"
     objecttolerance="10"
     gridtolerance="10"
     guidetolerance="10"
     inkscape:pageopacity="0"
     inkscape:pageshadow="2"
     inkscape:window-width="1920"
     inkscape:window-height="1016"
     id="namedview4"
     showgrid="false"
     inkscape:zoom="5.2"
     inkscape:cx="-32.321615"
     inkscape:cy="10.924553"
     inkscape:window-x="0"
     inkscape:window-y="27"
     inkscape:window-maximized="1"
     inkscape:current-layer="svg2" />
  <g
     id="g4544"
     transform="translate(0,-666)">
    <path
       style="fill:#fdfdfd;stroke-width:0.0579771"
       d="m 0,690 v -24 h 24 24 v 24 24 H 24 0 Z"
       id="path4560"
       inkscape:connector-curvature="0" />
    <path
       style="fill:#d3d3d3;stroke-width:0.0579771"
       d="m 22.125,713.92108 c -2.119829,-0.18827 -4.52132,-1.09153 -6.565967,-2.46961 C 9.373584,707.2825 6.0146205,699.08749 7.1020455,690.8186 l 0.100108,-0.76124 -0.4197565,-0.88582 c -1.451313,-3.06275 -2.2743031,-5.99721 -2.6146438,-9.3228 -0.119139,-1.16415 -0.1181373,-3.61003 0.00197,-4.80672 0.3067409,-3.05626 1.0972383,-5.98034 2.2489248,-8.31885 0.2407995,-0.48895 0.272636,-0.52693 0.524714,-0.62602 0.1475985,-0.058 0.3027285,-0.0878 0.3447335,-0.0661 0.042004,0.0217 0.2343245,0.0695 0.4273775,0.10633 0.4294675,0.0819 2.0189015,0.78984 2.934529,1.30706 2.545527,1.43792 5.404093,3.82622 7.49461,6.26169 0.876605,1.02125 0.718297,0.93071 1.289531,0.73754 0.677064,-0.22896 1.414103,-0.41176 2.240859,-0.55579 0.87241,-0.15199 3.591863,-0.17424 4.425,-0.0362 0.774459,0.12831 1.894973,0.39613 2.452943,0.5863 0.269598,0.0919 0.502019,0.16706 0.51649,0.16706 0.01447,0 0.235393,-0.24766 0.490939,-0.55036 2.369686,-2.80697 5.399805,-5.32452 8.214628,-6.82507 0.97695,-0.5208 2.295442,-1.09516 2.514042,-1.09516 0.07514,0 0.214843,-0.0302 0.310451,-0.067 0.122917,-0.0474 0.253782,-0.0425 0.446794,0.0168 l 0.272962,0.0838 0.342588,0.70588 c 1.369364,2.82148 2.189121,6.42307 2.272276,9.98319 0.100943,4.32166 -0.837719,8.5001 -2.820797,12.55673 l -0.323892,0.66256 0.0794,0.61725 c 0.167313,1.3006 0.198012,1.80598 0.196761,3.23909 -0.0014,1.58917 -0.09391,2.70535 -0.339923,4.10084 -0.895161,5.07775 -3.45317,9.58406 -7.125667,12.55294 -1.955226,1.58062 -4.443413,2.78061 -6.574999,3.17096 -1.272159,0.23296 -3.341046,0.30203 -4.900001,0.16357 z m 4.2,-1.66288 c 2.752696,-0.49954 5.140432,-1.68111 7.3,-3.61237 0.3025,-0.27053 0.682164,-0.63199 0.843699,-0.80326 l 0.293698,-0.3114 -0.155352,-0.10116 c -0.658626,-0.42888 -1.007601,-3.077 -0.941489,-7.1443 0.04191,-2.57838 0.202404,-4.84695 0.515478,-7.28622 0.105761,-0.82402 0.116555,-1.01045 0.06119,-1.05682 -0.03697,-0.031 -0.269724,-0.12245 -0.517224,-0.20329 -0.550238,-0.1797 -1.564901,-0.24386 -2.058703,-0.13016 -1.19457,0.27504 -2.283828,1.06715 -3.337139,2.42678 -0.228142,0.29448 -0.440464,0.53543 -0.471829,0.53543 -0.08017,0 -0.807329,-0.93985 -0.807329,-1.04347 0,-0.13987 0.997512,-1.37613 1.504003,-1.86396 0.857752,-0.82617 1.878882,-1.41997 2.820997,-1.64046 0.695149,-0.16269 1.989539,-0.0959 2.648854,0.13663 0.274369,0.0968 0.513779,0.17596 0.532022,0.17596 0.01824,0 0.08231,-0.24487 0.142373,-0.54415 0.375423,-1.8707 0.952905,-3.5816 1.460103,-4.32583 0.497256,-0.72963 0.948738,-0.92617 1.491097,-0.64909 l 0.250523,0.12799 -0.08749,-0.20132 c -0.308045,-0.70886 -1.111615,-2.01245 -1.858928,-3.01565 -2.602448,-3.49351 -5.961555,-5.60073 -9.978558,-6.2597 -0.825951,-0.1355 -3.318214,-0.11531 -4.147616,0.0336 -0.356188,0.0639 -0.654854,0.126 -0.663703,0.1379 -0.0088,0.0119 0.338829,0.0384 0.772616,0.059 0.615363,0.0291 0.895886,0.0747 1.276389,0.20746 2.702125,0.94242 2.865764,4.49401 0.463672,10.06344 -0.99557,2.30831 -2.033217,4.13224 -3.216755,5.65428 l -0.557138,0.71648 0.373767,0.48903 c 0.229716,0.30056 0.373768,0.54317 0.373768,0.6295 0,0.0893 -0.135377,0.30532 -0.371455,0.59281 -0.2043,0.24878 -0.386325,0.45233 -0.4045,0.45233 -0.01817,0 -0.227895,-0.24174 -0.466045,-0.5372 -0.23815,-0.29546 -0.463328,-0.53748 -0.500395,-0.53782 -0.03707,-3.3e-4 -0.264474,0.1633 -0.505347,0.36363 -1.26209,1.04968 -2.626323,1.70838 -4.056263,1.9585 -0.471808,0.0825 -1.000572,0.0983 -2.630745,0.0782 -2.241538,-0.0275 -2.3383815,-0.0434 -2.755648,-0.44976 -0.377339,-0.36752 -0.624418,-1.20843 -0.741206,-2.52263 l -0.035845,-0.40336 -0.044861,0.40336 c -0.057975,0.52128 -0.00918,2.35881 0.086224,3.2473 0.2483405,2.31268 0.898987,4.71153 1.799646,6.63506 2.344303,5.0067 6.497793,8.48312 11.287932,9.44785 1.084421,0.2184 1.595344,0.2584 2.963508,0.23202 0.933885,-0.018 1.51122,-0.0634 2.05,-0.16117 z M 23.2,708.22081 c -0.624149,-0.18015 -1.110281,-0.44751 -1.600214,-0.88005 -1.447946,-1.27835 -2.413611,-3.61562 -3.268972,-7.91211 -0.141012,-0.70831 -0.123572,-0.78151 0.20601,-0.86464 0.149191,-0.0376 0.19341,-0.0229 0.235893,0.0784 0.125816,0.30008 0.553094,0.8363 0.816123,1.02421 0.548224,0.39164 1.349606,0.56092 2.005169,0.42357 0.644331,-0.13499 1.512016,-0.64323 1.966537,-1.15187 0.148642,-0.16634 0.150666,-0.17628 0.07537,-0.36975 -0.114945,-0.29533 -0.345248,-0.56806 -1.062041,-1.25769 -0.862852,-0.83015 -1.026664,-1.17113 -0.74474,-1.55019 0.285451,-0.3838 0.937624,-0.36248 1.679774,0.0549 0.173853,0.0978 0.353218,0.19335 0.398591,0.21239 0.04537,0.019 0.284625,-0.0741 0.531671,-0.20702 0.76798,-0.41312 1.231954,-0.45644 1.574658,-0.14702 0.125605,0.11341 0.164607,0.20083 0.176723,0.39613 0.02111,0.3403 -0.09462,0.53989 -0.594859,1.02587 -0.845369,0.82126 -1.152357,1.17801 -1.23074,1.43025 l -0.07666,0.24668 0.283889,0.34688 c 0.559922,0.68417 1.262076,1.0535 2.002822,1.0535 0.852855,0 1.415667,-0.34895 2.434366,-1.50933 0.201547,-0.22958 0.333197,-0.23101 0.540017,-0.006 l 0.112027,0.12197 -0.161644,0.76728 c -0.695514,3.30142 -1.531066,5.54983 -2.599391,6.9948 -0.529076,0.7156 -0.892737,1.06264 -1.450126,1.38383 -0.738401,0.42551 -1.466873,0.52096 -2.250249,0.29485 z m 4.374722,-7.06036 c 0.07871,-0.22142 0.130034,-0.42016 0.114054,-0.44165 -0.0404,-0.0543 -0.634846,0.10902 -0.669266,0.1839 -0.02928,0.0637 0.309232,0.66033 0.374644,0.66033 0.0206,0 0.101858,-0.18117 0.180568,-0.40258 z m -7.045256,0.0299 c 0.108536,-0.17809 0.167267,-0.32941 0.140848,-0.3629 -0.07778,-0.0986 -0.570314,-0.16173 -0.570314,-0.0731 0,0.0838 0.202078,0.74146 0.227809,0.74146 0.0085,0 0.09927,-0.13746 0.201657,-0.30546 z M 5.915173,677.98671 c 0.3874685,-1.26408 0.7533085,-2.15491 1.278326,-3.11276 0.169655,-0.30952 0.3382975,-0.72484 0.4367685,-1.07563 0.3341115,-1.19024 0.8662595,-2.54872 1.118725,-2.85592 0.120625,-0.14677 0.247287,-0.12138 1.008994,0.20226 l 0.4329865,0.18397 0.566479,-0.38959 c 0.311565,-0.21428 0.768665,-0.50342 1.01578,-0.64253 0.247115,-0.13912 0.455578,-0.27826 0.463251,-0.30922 0.01916,-0.0773 -1.693217,-1.22977 -2.3281065,-1.5669 -0.5379545,-0.28567 -2.228635,-0.97914 -2.5617015,-1.05075 l -0.1916265,-0.0412 -0.398229,1.10049 c -0.828808,2.29036 -1.3092075,4.33082 -1.580713,6.71393 -0.126634,1.11151 -0.154162,3.14689 -0.057586,4.25784 0.044471,0.51156 0.094733,0.9603 0.1116935,0.9972 0.016961,0.0369 0.1260975,-0.32115 0.2425255,-0.79566 0.116428,-0.47451 0.315523,-1.2015 0.4424335,-1.61553 z m 36.928939,2.0469 c 0.114456,-0.88438 0.160492,-2.37177 0.106091,-3.42767 -0.117511,-2.28082 -0.482782,-4.37027 -1.172459,-6.70678 -0.204561,-0.69302 -0.867934,-2.53854 -0.931451,-2.59132 -0.09217,-0.0766 -2.033332,0.70677 -2.867699,1.15727 -0.528024,0.28509 -2.228561,1.43069 -2.228509,1.50128 1.3e-5,0.0185 0.165136,0.13342 0.366938,0.25541 0.388947,0.23512 1.141399,0.78746 1.558944,1.14434 l 0.250966,0.21451 0.74716,-0.33654 c 0.410937,-0.1851 0.808639,-0.33655 0.883781,-0.33655 0.174135,0 0.430801,0.46664 0.809868,1.47238 0.415604,1.10269 0.652654,2.02136 0.829238,3.21364 0.06946,0.46902 0.14596,0.74564 0.316044,1.14286 0.385711,0.9008 0.764912,1.96977 1.014612,2.8602 0.132201,0.47143 0.245255,0.85714 0.251232,0.85714 0.006,0 0.03534,-0.18907 0.06524,-0.42017 z m -42.43187082,23.5017 c -0.1094209,-0.29404 -0.22465973,-1.0413 -0.17158903,-1.11266 0.0295085,-0.0397 1.50917905,-0.59758 3.28815665,-1.23979 2.3187272,-0.83706 3.2522307,-1.14788 3.2971112,-1.0978 0.064499,0.072 0.22408,0.83142 0.22408,1.0664 0,0.0903 -0.051545,0.154 -0.1625,0.20086 -0.1616875,0.0683 -6.04150545,2.18258 -6.29589175,2.2639 -0.10019913,0.032 -0.14483201,0.0119 -0.17936707,-0.0809 z M 47.425,703.47346 c -0.0275,-0.0106 -1.45625,-0.52367 -3.175,-1.14006 -1.71875,-0.6164 -3.164375,-1.14884 -3.2125,-1.18321 -0.04812,-0.0344 -0.0875,-0.12483 -0.0875,-0.20103 0,-0.21385 0.152949,-0.88793 0.224491,-0.98939 0.0533,-0.0756 0.59853,0.10141 3.282216,1.06554 1.770061,0.63591 3.248124,1.19436 3.284585,1.24101 0.0508,0.065 0.0545,0.14591 0.01587,0.34622 -0.02773,0.14378 -0.07468,0.38687 -0.104335,0.54021 -0.05159,0.26684 -0.119603,0.36257 -0.227823,0.32071 z M 0.0625,699.16582 C 0.01947889,699.1423 0,698.9557 0,698.56711 c 0,-0.52978 0.00692805,-0.5668 0.1125,-0.60119 0.061875,-0.0202 1.54125,-0.0283 3.2875,-0.0181 l 3.175,0.0186 v 0.60504 0.60504 l -3.225,0.0118 c -1.77375,0.006 -3.253125,-0.004 -3.2875,-0.0224 z m 41.370834,-0.13501 c -0.05998,-0.0806 -0.03695,-1.13351 0.02667,-1.21905 0.0454,-0.061 0.829092,-0.0807 3.220911,-0.0807 1.738501,0 3.196501,0.0184 3.24,0.0408 0.116322,0.06 0.116322,1.20291 0,1.26292 -0.108348,0.0559 -6.445931,0.052 -6.487577,-0.004 z M 3.0753866,695.63847 c -1.6222874,-0.58894 -2.9765742,-1.10777 -3.00952626,-1.15296 -0.04233191,-0.058 -0.04684421,-0.16106 -0.01537716,-0.35106 0.02449462,-0.1479 0.06253143,-0.38991 0.08452625,-0.53781 0.0308992,-0.20778 0.0656468,-0.27381 0.1528464,-0.29045 0.14759703,-0.0282 6.11734067,2.12113 6.20210617,2.23297 0.053236,0.0702 0.047077,0.17249 -0.034124,0.56647 -0.123877,0.60104 -0.132365,0.61852 -0.2962895,0.61035 -0.074002,-0.004 -1.4618751,-0.48856 -3.0841619,-1.07751 z m 38.5961274,0.87496 c -0.06423,-0.13974 -0.214413,-1.01471 -0.189281,-1.10277 0.01375,-0.0482 0.08525,-0.1079 0.158885,-0.1327 0.07364,-0.0248 1.471325,-0.52738 3.105978,-1.11682 2.507234,-0.90408 2.982742,-1.0574 3.040159,-0.9802 0.03743,0.0503 0.08754,0.27683 0.111356,0.50332 0.02381,0.22649 0.0578,0.44336 0.07553,0.48193 0.01773,0.0386 0.0011,0.11199 -0.03694,0.16315 -0.06384,0.0858 -5.985629,2.2589 -6.155699,2.2589 -0.04158,0 -0.09107,-0.0337 -0.109983,-0.0748 z"
       id="path4558"
       inkscape:connector-curvature="0" />
    <path
       style="fill:#999999;stroke-width:0.0579771"
       d="m 22.9,713.96105 c -0.09625,-0.0148 -0.45625,-0.0594 -0.8,-0.0991 -4.095481,-0.47332 -8.085441,-2.93214 -10.900989,-6.71775 -2.1709915,-2.91898 -3.556377,-6.44523 -4.0462935,-10.29912 -0.243125,-1.91252 -0.2411105,-3.92251 0.00596,-5.9484 l 0.107913,-0.88485 -0.352376,-0.7286 c -1.5084625,-3.11901 -2.395472,-6.28662 -2.6901506,-9.60684 -0.091476,-1.03069 -0.1048439,-3.13569 -0.026229,-4.13016 0.2559868,-3.23822 1.1011428,-6.44879 2.3536948,-8.94118 0.147086,-0.29268 0.23407,-0.39361 0.4173155,-0.48426 l 0.2314985,-0.11451 0.7216095,0.26602 c 3.4969958,1.2892 7.1597268,4.00894 10.3533558,7.68781 l 0.635391,0.73194 0.257149,-0.0824 c 3.214169,-1.02973 6.027608,-1.0796 9.116984,-0.1616 0.798223,0.23719 0.811563,0.23884 0.93039,0.11478 0.0663,-0.0692 0.37688,-0.42393 0.690165,-0.78824 3.002681,-3.49168 7.092175,-6.4659 10.44461,-7.59619 0.45528,-0.1535 0.484279,-0.15558 0.698512,-0.0503 0.191267,0.094 0.265282,0.19212 0.513061,0.67994 0.359794,0.70837 1.113846,2.73997 1.388552,3.74111 0.407801,1.48618 0.727179,3.28391 0.857897,4.82896 0.08156,0.96401 0.08054,3.22953 -0.0019,4.16807 -0.302289,3.44232 -1.271659,6.87417 -2.81427,9.96335 -0.133028,0.2664 -0.24187,0.54557 -0.24187,0.62039 0,0.0748 0.05005,0.5224 0.111213,0.99463 0.09741,0.75205 0.111214,1.09637 0.111214,2.77457 0,1.68299 -0.01368,2.02223 -0.112477,2.78992 -0.417612,3.24486 -1.369925,6.11379 -2.87313,8.65556 -2.812827,4.7562 -7.133978,7.82212 -12.011822,8.52256 -0.512124,0.0735 -2.760359,0.14215 -3.075,0.0938 z m 2.7,-1.51056 c 2.532671,-0.30857 4.970593,-1.31426 7.075,-2.91858 0.914117,-0.69689 2.175,-1.88757 2.175,-2.0539 0,-0.0364 -0.03202,-0.0663 -0.07116,-0.0663 -0.125909,0 -0.380141,-0.34406 -0.511217,-0.69185 -0.180694,-0.47943 -0.349447,-1.43389 -0.450835,-2.54987 -0.117098,-1.2889 -0.116159,-4.7109 0.0018,-6.5734 0.120497,-1.90252 0.467794,-5.31982 0.561327,-5.5233 0.08648,-0.18814 -0.691219,-0.49912 -1.477477,-0.5908 -1.655914,-0.19308 -3.119382,0.59946 -4.63824,2.51183 l -0.410801,0.51724 -0.339199,-0.42245 c -0.18656,-0.23235 -0.347028,-0.46477 -0.356597,-0.5165 -0.02285,-0.12352 0.612161,-0.98648 1.117398,-1.51851 1.003672,-1.0569 2.02203,-1.69141 3.122628,-1.9456 0.878213,-0.20283 2.060885,-0.10705 2.876497,0.23297 0.164519,0.0686 0.315302,0.10295 0.335075,0.0764 0.01977,-0.0266 0.114775,-0.41655 0.211118,-0.8666 0.300951,-1.40582 0.757222,-2.88902 1.091962,-3.54964 0.183336,-0.36182 0.607512,-0.91617 0.81272,-1.06214 0.296928,-0.21121 0.68665,-0.19669 1.023258,0.0381 0.146227,0.102 0.276684,0.17092 0.289903,0.15314 0.037,-0.0497 -0.510029,-1.12652 -0.955995,-1.8818 -0.497941,-0.84331 -1.60317,-2.33147 -2.232167,-3.00556 -2.432885,-2.6073 -5.240514,-4.18439 -8.55,-4.80269 -0.765801,-0.14307 -3.027537,-0.20317 -3.85,-0.1023 -0.34375,0.0422 -0.86125,0.12274 -1.15,0.17907 -0.567243,0.11066 -1.620434,0.42703 -1.584117,0.47586 0.01226,0.0165 0.289329,-0.0148 0.615705,-0.0694 0.968377,-0.16223 1.412607,-0.18757 1.98774,-0.11341 1.038711,0.13393 1.70347,0.4684 2.227541,1.12076 1.304622,1.624 0.903042,4.89197 -1.173513,9.54978 -0.844234,1.89365 -1.659585,3.31003 -2.756277,4.78804 -0.421894,0.56859 -0.767079,1.05338 -0.767079,1.07732 0,0.0239 0.16875,0.2689 0.375,0.54436 0.20625,0.27546 0.375,0.537 0.375,0.5812 0,0.10905 -0.655293,0.89779 -0.745892,0.89779 -0.03975,0 -0.256693,-0.24202 -0.482085,-0.53782 -0.225393,-0.2958 -0.432626,-0.53781 -0.460519,-0.53781 -0.02789,0 -0.250017,0.1691 -0.49361,0.37578 -1.185055,1.00549 -2.477078,1.65786 -3.867894,1.95297 -0.717997,0.15235 -4.5907155,0.13984 -5.03647,-0.0163 -0.843269,-0.29532 -1.144088,-1.11139 -1.24483,-3.37702 -0.040111,-0.90206 -0.085517,-0.83941 -0.172807,0.23846 -0.072031,0.88945 -0.031249,2.87317 0.078485,3.81767 0.416674,3.58635 1.647833,6.86204 3.597903,9.57277 2.739015,3.80742 6.534898,6.13259 10.802718,6.61722 0.486649,0.0553 2.502421,0.0385 3.025,-0.0252 z m -2.125,-4.23444 c -1.38732,-0.28617 -2.48468,-1.28241 -3.382008,-3.07035 -0.339504,-0.67647 -0.83981,-2.08451 -1.093846,-3.07847 C 18.750793,701.0955 18.3,699.0327 18.3,698.86798 c 0,-0.0765 0.06507,-0.14693 0.184947,-0.20012 0.17308,-0.0768 0.189742,-0.0718 0.259682,0.0788 0.160225,0.34493 0.603581,0.85874 0.910579,1.05529 0.730554,0.46772 1.764179,0.54042 2.594792,0.18251 0.506316,-0.21817 1.09894,-0.62131 1.373437,-0.9343 0.181091,-0.20648 0.193449,-0.24098 0.141377,-0.39465 -0.110419,-0.32584 -0.390908,-0.67594 -1.037157,-1.29455 -0.885851,-0.84798 -1.058114,-1.11726 -0.926402,-1.44816 0.190667,-0.47901 1.123911,-0.42276 1.915136,0.11544 l 0.241391,0.16419 0.408609,-0.23351 c 0.537587,-0.30722 0.746539,-0.37827 1.113715,-0.37872 0.572058,-7.1e-4 0.839186,0.45829 0.542562,0.93226 -0.07295,0.11656 -0.389224,0.458 -0.702843,0.75876 -0.641927,0.61559 -1.056584,1.13863 -1.103979,1.39253 -0.07061,0.37827 0.892695,1.27972 1.633837,1.52894 0.478158,0.16079 1.214408,0.10086 1.674704,-0.13632 0.452004,-0.23291 0.969743,-0.66989 1.366779,-1.15359 l 0.316166,-0.38518 0.171334,0.10986 c 0.204396,0.13105 0.211007,0.21593 0.06837,0.87789 -0.972695,4.51419 -2.187989,7.12615 -3.830606,8.23291 -0.630977,0.42514 -1.479196,0.61439 -2.141432,0.47778 z m 1.3,-0.71613 c 1.313292,-0.43743 2.526472,-2.19746 3.385457,-4.9115 0.318153,-1.00523 0.751414,-2.73324 0.692124,-2.76045 -0.02489,-0.0114 -0.165024,0.0864 -0.311415,0.21732 -0.245522,0.21961 -0.276952,0.27858 -0.405238,0.76026 -0.161923,0.60798 -0.584855,1.7149 -0.668261,1.74901 -0.03153,0.0129 -0.248904,-0.30487 -0.483048,-0.70614 -0.234144,-0.40127 -0.458032,-0.76565 -0.49753,-0.80972 -0.0395,-0.0441 -0.260875,-0.12436 -0.491951,-0.17842 -0.510745,-0.11947 -1.175802,-0.54342 -1.63289,-1.0409 -0.172013,-0.18721 -0.326499,-0.34039 -0.343301,-0.34039 -0.0168,0 -0.134814,0.10216 -0.262248,0.22701 -0.520017,0.5095 -1.199483,0.87077 -1.970269,1.04759 -0.30279,0.0695 -0.564231,0.15348 -0.580979,0.18672 -0.165833,0.32909 -0.92683,1.56389 -0.963814,1.56389 -0.05763,0 -0.353818,-0.84401 -0.542606,-1.54622 -0.127602,-0.47462 -0.150616,-0.51529 -0.392293,-0.69334 C 19.108318,700.11846 19.05,700.09833 19.05,700.176 c 0,0.1971 0.502955,2.17296 0.738103,2.89963 0.885424,2.7362 2.166643,4.24859 3.836897,4.52917 0.400345,0.0673 0.720979,0.038 1.15,-0.10488 z m 2.851953,-6.28794 c 0.171309,-0.48062 0.208161,-0.6589 0.135547,-0.65571 -0.04797,0.002 -0.431944,0.11909 -0.675,0.20566 -0.103125,0.0367 -0.1875,0.0931 -0.1875,0.12526 0,0.0897 0.448852,0.81029 0.504699,0.81029 0.02706,0 0.127078,-0.21847 0.222254,-0.4855 z m -6.995367,-0.0644 c 0.09921,-0.18171 0.166713,-0.34877 0.150009,-0.37123 -0.04549,-0.0612 -0.697737,-0.21627 -0.744846,-0.17712 -0.04827,0.0401 -0.01512,0.19702 0.144991,0.68633 0.135777,0.41494 0.150428,0.41044 0.449846,-0.13798 z m 18.917045,-16.89245 c 1.701644,-3.78778 1.849467,-7.92807 0.416994,-11.67941 -0.179112,-0.46905 -0.363626,-0.89902 -0.410031,-0.95549 -0.07607,-0.0926 -0.133416,-0.0835 -0.582483,0.0919 -1.763099,0.68857 -3.758232,2.13198 -5.389806,3.89935 -0.334568,0.36242 -0.659935,0.73383 -0.723037,0.82538 l -0.114731,0.16644 0.464731,0.35335 c 0.680532,0.51743 1.637215,1.38775 2.264732,2.06027 0.709262,0.76014 1.947748,2.41956 2.47212,3.31235 0.418671,0.71282 1.020574,1.88195 1.17164,2.27578 0.0461,0.12017 0.10422,0.21849 0.129168,0.21849 0.02495,0 0.160265,-0.25577 0.300703,-0.56838 z m -30.185708,-0.6921 c 0.1820985,-0.36051 0.4826535,-0.91261 0.6679,-1.2269 0.467901,-0.79383 1.890556,-2.69439 2.507972,-3.35046 0.664789,-0.70641 1.79271,-1.70985 2.473705,-2.2007 0.295625,-0.21309 0.5375,-0.41795 0.5375,-0.45525 0,-0.0871 -0.189524,-0.30662 -0.903531,-1.04657 -1.481181,-1.53498 -3.182442,-2.77964 -4.721469,-3.45426 -0.9675085,-0.4241 -0.904934,-0.41872 -1.08375,-0.0932 -0.2268945,0.41306 -0.6614565,1.65738 -0.861211,2.46597 -0.334608,1.35447 -0.3998435,1.93958 -0.400998,3.59664 -0.00117,1.68161 0.061326,2.22427 0.4256,3.69538 0.2615795,1.05639 0.865031,2.72479 0.985541,2.72479 0.022908,0 0.190642,-0.29496 0.372741,-0.65546 z m -3.862772,-3.7311 c 0.488517,-2.0649 1.1218655,-3.80456 1.8554565,-5.09651 0.09575,-0.16863 0.237339,-0.54678 0.314642,-0.84034 0.1866485,-0.70879 0.7346025,-2.20159 0.95472,-2.60096 0.2147635,-0.38966 0.269336,-0.3963 0.966945,-0.11765 0.2777055,0.11092 0.5542805,0.20168 0.6146095,0.20168 0.06033,0 0.212917,-0.0822 0.339083,-0.18259 0.126166,-0.10042 0.589393,-0.39876 1.029393,-0.66297 0.44,-0.26421 0.797872,-0.50725 0.795271,-0.5401 -0.0081,-0.10283 -1.765151,-1.28628 -2.420271,-1.6302 -0.675255,-0.35448 -1.3023615,-0.62434 -2.187449,-0.94131 -0.5126365,-0.18359 -0.569446,-0.19202 -0.641457,-0.0952 -0.1156875,0.15555 -0.7258025,1.86896 -1.0160115,2.85332 -0.4518225,1.53253 -0.791493,3.20463 -0.981024,4.8293 -0.1106695,0.94867 -0.153844,3.33474 -0.07797,4.30905 0.068173,0.87542 0.144621,1.40524 0.2027615,1.40524 0.02231,0 0.1353955,-0.40084 0.251301,-0.89076 z m 37.393949,0.35294 c 0.130278,-1.02102 0.177262,-2.50912 0.11537,-3.65404 -0.155431,-2.87528 -0.698969,-5.48454 -1.72105,-8.26192 -0.292844,-0.79577 -0.412595,-1.05883 -0.482013,-1.05883 -0.157337,0 -1.950401,0.71279 -2.556407,1.01623 -0.603938,0.30241 -2.557637,1.60281 -2.587202,1.72207 -0.0095,0.0382 0.304406,0.28156 0.697495,0.54084 0.393089,0.25928 0.889778,0.62586 1.103753,0.81463 0.213976,0.18876 0.413562,0.34321 0.443525,0.34321 0.02996,0 0.368918,-0.13614 0.753233,-0.30252 0.939694,-0.40684 0.984346,-0.40379 1.230625,0.084 0.232749,0.46102 0.602466,1.43685 0.808161,2.13307 0.157544,0.53323 0.420962,1.81603 0.476549,2.32071 0.01973,0.1791 0.152782,0.59051 0.32613,1.00841 0.423292,1.02044 0.811891,2.14828 1.019175,2.95798 0.09939,0.38823 0.192211,0.74876 0.206271,0.80116 0.04475,0.16679 0.1085,-0.0114 0.166385,-0.46503 z M 0.38158877,703.12164 c -0.1234544,-0.59158 -0.11281939,-0.66671 0.10591123,-0.7482 2.1371422,-0.79618 6.2246795,-2.23028 6.2781795,-2.20268 0.072607,0.0375 0.269199,0.96442 0.2188845,1.03207 -0.039979,0.0538 -6.31904235,2.30978 -6.4286721,2.30978 -0.0703047,0 -0.11243486,-0.0945 -0.17430313,-0.39097 z m 43.82593723,-0.8842 c -1.71461,-0.62232 -3.13948,-1.16108 -3.166376,-1.19724 -0.03187,-0.0429 -0.017,-0.22667 0.04269,-0.52777 0.08034,-0.40526 0.106918,-0.46397 0.216376,-0.47799 0.06863,-0.009 1.531034,0.49273 3.249784,1.11449 3.54223,1.28141 3.238299,1.10029 3.063883,1.82586 -0.06602,0.27463 -0.114607,0.37288 -0.188883,0.38194 -0.055,0.007 -1.502863,-0.49698 -3.217474,-1.11929 z M 0,698.57143 v -0.5724 l 3.2625,0.0173 3.2625,0.0173 v 0.53782 0.53781 L 3.2625,699.12654 0,699.14383 Z m 41.470975,0.34627 c -0.01424,-0.0499 -0.01916,-0.29947 -0.01093,-0.55462 l 0.01496,-0.46392 3.2625,-0.0173 3.2625,-0.0173 v 0.57192 0.57191 h -3.251569 c -2.682653,0 -3.256099,-0.0159 -3.277456,-0.0907 z M 3.85,695.82325 c -1.25125,-0.45408 -2.5923825,-0.93971 -2.9802943,-1.07918 -0.38791186,-0.13946 -0.73437871,-0.27774 -0.76992633,-0.30728 -0.05196226,-0.0432 -0.04628725,-0.1488 0.02894986,-0.53883 0.05147,-0.26682 0.12000659,-0.49875 0.15230344,-0.51542 0.10493906,-0.0541 6.12748233,2.1489 6.15696883,2.25222 0.043959,0.15402 -0.153597,0.98345 -0.2381125,0.9997 C 6.1587,696.64238 5.10125,696.27734 3.85,695.82325 Z m 37.855702,0.5465 c -0.110785,-0.40068 -0.172535,-0.8614 -0.124168,-0.92643 0.06629,-0.0891 6.006699,-2.22928 6.112434,-2.20213 0.05446,0.014 0.112142,0.18084 0.175891,0.50877 0.05217,0.26837 0.08208,0.50514 0.06645,0.52615 -0.02409,0.0324 -6.101299,2.2449 -6.166164,2.2449 -0.01244,0 -0.04144,-0.0681 -0.06444,-0.15126 z"
       id="path4556"
       inkscape:connector-curvature="0" />
    <path
       style="fill:#7b7b7b;stroke-width:0.0579771"
       d="m 22.9,713.96105 c -0.09625,-0.0148 -0.45625,-0.0594 -0.8,-0.0991 -4.095481,-0.47332 -8.085441,-2.93214 -10.900989,-6.71775 -2.1709915,-2.91898 -3.556377,-6.44523 -4.0462935,-10.29912 -0.243125,-1.91252 -0.2411105,-3.92251 0.00596,-5.9484 l 0.107913,-0.88485 -0.352376,-0.7286 c -1.5084625,-3.11901 -2.395472,-6.28662 -2.6901506,-9.60684 -0.091476,-1.03069 -0.1048439,-3.13569 -0.026229,-4.13016 0.2559868,-3.23822 1.1011428,-6.44879 2.3536948,-8.94118 0.147086,-0.29268 0.23407,-0.39361 0.4173155,-0.48426 l 0.2314985,-0.11451 0.7216095,0.26602 c 3.4969958,1.2892 7.1597268,4.00894 10.3533558,7.68781 l 0.635391,0.73194 0.257149,-0.0824 c 3.214169,-1.02973 6.027608,-1.0796 9.116984,-0.1616 0.798223,0.23719 0.811563,0.23884 0.93039,0.11478 0.0663,-0.0692 0.37688,-0.42393 0.690165,-0.78824 3.002681,-3.49168 7.092175,-6.4659 10.44461,-7.59619 0.45528,-0.1535 0.484279,-0.15558 0.698512,-0.0503 0.191267,0.094 0.265282,0.19212 0.513061,0.67994 0.359794,0.70837 1.113846,2.73997 1.388552,3.74111 0.407801,1.48618 0.727179,3.28391 0.857897,4.82896 0.08156,0.96401 0.08054,3.22953 -0.0019,4.16807 -0.302289,3.44232 -1.271659,6.87417 -2.81427,9.96335 -0.133028,0.2664 -0.24187,0.54557 -0.24187,0.62039 0,0.0748 0.05005,0.5224 0.111213,0.99463 0.09741,0.75205 0.111214,1.09637 0.111214,2.77457 0,1.68299 -0.01368,2.02223 -0.112477,2.78992 -0.417612,3.24486 -1.369925,6.11379 -2.87313,8.65556 -2.812827,4.7562 -7.133978,7.82212 -12.011822,8.52256 -0.512124,0.0735 -2.760359,0.14215 -3.075,0.0938 z m 2.7,-1.51056 c 2.532671,-0.30857 4.970593,-1.31426 7.075,-2.91858 0.914117,-0.69689 2.175,-1.88757 2.175,-2.0539 0,-0.0364 -0.03202,-0.0663 -0.07116,-0.0663 -0.125909,0 -0.380141,-0.34406 -0.511217,-0.69185 -0.180694,-0.47943 -0.349447,-1.43389 -0.450835,-2.54987 -0.117098,-1.2889 -0.116159,-4.7109 0.0018,-6.5734 0.120497,-1.90252 0.467794,-5.31982 0.561327,-5.5233 0.08648,-0.18814 -0.691219,-0.49912 -1.477477,-0.5908 -1.655914,-0.19308 -3.119382,0.59946 -4.63824,2.51183 l -0.410801,0.51724 -0.339199,-0.42245 c -0.18656,-0.23235 -0.347028,-0.46477 -0.356597,-0.5165 -0.02285,-0.12352 0.612161,-0.98648 1.117398,-1.51851 1.003672,-1.0569 2.02203,-1.69141 3.122628,-1.9456 0.878213,-0.20283 2.060885,-0.10705 2.876497,0.23297 0.164519,0.0686 0.315302,0.10295 0.335075,0.0764 0.01977,-0.0266 0.114775,-0.41655 0.211118,-0.8666 0.300951,-1.40582 0.757222,-2.88902 1.091962,-3.54964 0.183336,-0.36182 0.607512,-0.91617 0.81272,-1.06214 0.296928,-0.21121 0.68665,-0.19669 1.023258,0.0381 0.146227,0.102 0.276684,0.17092 0.289903,0.15314 0.037,-0.0497 -0.510029,-1.12652 -0.955995,-1.8818 -0.497941,-0.84331 -1.60317,-2.33147 -2.232167,-3.00556 -2.447254,-2.62269 -5.22869,-4.17932 -8.6,-4.81298 -0.79337,-0.14912 -3.604051,-0.16959 -4.35,-0.0317 -1.572396,0.2907 -3.475018,0.98216 -4.91493,1.78622 -3.766822,2.10343 -7.2489645,6.76227 -8.32212,11.13437 -0.1873485,0.76327 -0.24843,1.17564 -0.408269,2.7563 -0.028042,0.27731 -0.07814,0.65546 -0.1113285,0.84034 -0.100224,0.55828 -0.084667,3.40535 0.023619,4.32249 0.4318125,3.65727 1.645507,6.89576 3.6053095,9.62002 2.739016,3.80742 6.534899,6.13259 10.802719,6.61722 0.486649,0.0553 2.502421,0.0385 3.025,-0.0252 z m -2.125,-4.23444 c -1.38732,-0.28617 -2.48468,-1.28241 -3.382008,-3.07035 -0.339504,-0.67647 -0.83981,-2.08451 -1.093846,-3.07847 C 18.750793,701.0955 18.3,699.0327 18.3,698.86798 c 0,-0.0765 0.06507,-0.14693 0.184947,-0.20012 0.17308,-0.0768 0.189742,-0.0718 0.259682,0.0788 0.160225,0.34493 0.603581,0.85874 0.910579,1.05529 0.730554,0.46772 1.764179,0.54042 2.594792,0.18251 0.506316,-0.21817 1.09894,-0.62131 1.373437,-0.9343 0.181091,-0.20648 0.193449,-0.24098 0.141377,-0.39465 -0.110419,-0.32584 -0.390908,-0.67594 -1.037157,-1.29455 -0.885851,-0.84798 -1.058114,-1.11726 -0.926402,-1.44816 0.190667,-0.47901 1.123911,-0.42276 1.915136,0.11544 l 0.241391,0.16419 0.408609,-0.23351 c 0.537587,-0.30722 0.746539,-0.37827 1.113715,-0.37872 0.572058,-7.1e-4 0.839186,0.45829 0.542562,0.93226 -0.07295,0.11656 -0.389224,0.458 -0.702843,0.75876 -0.641927,0.61559 -1.056584,1.13863 -1.103979,1.39253 -0.07061,0.37827 0.892695,1.27972 1.633837,1.52894 0.478158,0.16079 1.214408,0.10086 1.674704,-0.13632 0.452004,-0.23291 0.969743,-0.66989 1.366779,-1.15359 l 0.316166,-0.38518 0.171334,0.10986 c 0.204396,0.13105 0.211007,0.21593 0.06837,0.87789 -0.972695,4.51419 -2.187989,7.12615 -3.830606,8.23291 -0.630977,0.42514 -1.479196,0.61439 -2.141432,0.47778 z m 1.3,-0.71613 c 1.313292,-0.43743 2.526472,-2.19746 3.385457,-4.9115 0.318153,-1.00523 0.751414,-2.73324 0.692124,-2.76045 -0.02489,-0.0114 -0.165024,0.0864 -0.311415,0.21732 -0.245522,0.21961 -0.276952,0.27858 -0.405238,0.76026 -0.161923,0.60798 -0.584855,1.7149 -0.668261,1.74901 -0.03153,0.0129 -0.248904,-0.30487 -0.483048,-0.70614 -0.234144,-0.40127 -0.458032,-0.76565 -0.49753,-0.80972 -0.0395,-0.0441 -0.260875,-0.12436 -0.491951,-0.17842 -0.510745,-0.11947 -1.175802,-0.54342 -1.63289,-1.0409 -0.172013,-0.18721 -0.326499,-0.34039 -0.343301,-0.34039 -0.0168,0 -0.134814,0.10216 -0.262248,0.22701 -0.520017,0.5095 -1.199483,0.87077 -1.970269,1.04759 -0.30279,0.0695 -0.564231,0.15348 -0.580979,0.18672 -0.165833,0.32909 -0.92683,1.56389 -0.963814,1.56389 -0.05763,0 -0.353818,-0.84401 -0.542606,-1.54622 -0.127602,-0.47462 -0.150616,-0.51529 -0.392293,-0.69334 C 19.108318,700.11846 19.05,700.09833 19.05,700.176 c 0,0.1971 0.502955,2.17296 0.738103,2.89963 0.885424,2.7362 2.166643,4.24859 3.836897,4.52917 0.400345,0.0673 0.720979,0.038 1.15,-0.10488 z m 2.851953,-6.28794 c 0.171309,-0.48062 0.208161,-0.6589 0.135547,-0.65571 -0.04797,0.002 -0.431944,0.11909 -0.675,0.20566 -0.103125,0.0367 -0.1875,0.0931 -0.1875,0.12526 0,0.0897 0.448852,0.81029 0.504699,0.81029 0.02706,0 0.127078,-0.21847 0.222254,-0.4855 z m -6.995367,-0.0644 c 0.09921,-0.18171 0.166713,-0.34877 0.150009,-0.37123 -0.04549,-0.0612 -0.697737,-0.21627 -0.744846,-0.17712 -0.04827,0.0401 -0.01512,0.19702 0.144991,0.68633 0.135777,0.41494 0.150428,0.41044 0.449846,-0.13798 z M 9.986159,693.91428 C 9.8012715,693.66377 9.65,693.42614 9.65,693.38622 c 0,-0.0925 0.435936,-0.64358 0.825,-1.04297 2.251522,-2.31131 4.752039,-3.01927 6.936683,-1.96397 0.954942,0.46129 1.922451,1.29908 2.664913,2.30762 0.274122,0.37236 0.505141,0.71806 0.513374,0.76822 0.01822,0.11098 -0.632535,0.91463 -0.740617,0.91463 -0.04237,0 -0.233932,-0.21401 -0.425694,-0.47557 -0.191762,-0.26156 -0.411612,-0.52023 -0.488554,-0.57482 -0.07694,-0.0546 -0.290693,-0.24632 -0.475,-0.42607 -1.87698,-1.83057 -4.155215,-1.86961 -6.379748,-0.10934 -0.456585,0.3613 -1.27075,1.17067 -1.450607,1.44207 -0.157735,0.23802 -0.282413,0.17763 -0.643591,-0.31174 z m 30.80337,-6.28403 c 0.887012,-2.0461 1.522143,-4.17338 1.860746,-6.2323 0.0575,-0.34962 0.123123,-0.66727 0.145836,-0.70589 0.06833,-0.11618 0.150243,-0.88246 0.21355,-1.99778 0.181911,-3.20486 -0.431627,-6.921 -1.721241,-10.42537 -0.292844,-0.79577 -0.412595,-1.05883 -0.482013,-1.05883 -0.157352,0 -1.950433,0.7128 -2.556407,1.01624 -0.568003,0.28443 -2.478148,1.54193 -2.575,1.69519 -0.0275,0.0435 -0.39875,0.3473 -0.825,0.67507 -0.42625,0.32776 -1.10125,0.88318 -1.5,1.23425 -1.229334,1.08235 -3.201485,3.13914 -3.114797,3.24848 0.02189,0.0276 0.305157,0.18885 0.629485,0.35831 0.324329,0.16945 0.790205,0.43336 1.035281,0.58646 l 0.445592,0.27836 0.46472,-0.53461 c 0.853904,-0.98234 1.713724,-1.80785 2.67559,-2.56881 0.675014,-0.53402 1.800998,-1.27747 2.189129,-1.4454 1.131459,-0.48956 1.709632,-0.7116 1.852917,-0.7116 0.148997,0 0.190799,0.0444 0.363512,0.38655 0.391742,0.77595 0.848214,2.13065 1.058688,3.14194 0.326562,1.56908 0.416166,2.44702 0.380898,3.73201 -0.06057,2.20677 -0.597808,4.44824 -1.554055,6.48383 l -0.282553,0.60148 0.273872,0.78437 c 0.150629,0.4314 0.358327,1.09099 0.461552,1.46575 0.103225,0.37476 0.204173,0.68138 0.224329,0.68138 0.02015,0 0.171072,-0.31009 0.335369,-0.68908 z m -1.240898,-3.3751 c 1.701644,-3.78778 1.849467,-7.92807 0.416994,-11.67941 -0.179112,-0.46905 -0.363626,-0.89902 -0.410031,-0.95549 -0.07607,-0.0926 -0.133416,-0.0835 -0.582483,0.0919 -1.763099,0.68857 -3.758232,2.13198 -5.389806,3.89935 -0.334568,0.36242 -0.659935,0.73383 -0.723037,0.82538 l -0.114731,0.16644 0.464731,0.35335 c 0.680532,0.51743 1.637215,1.38775 2.264732,2.06027 0.709262,0.76014 1.947748,2.41956 2.47212,3.31235 0.418671,0.71282 1.020574,1.88195 1.17164,2.27578 0.0461,0.12017 0.10422,0.21849 0.129168,0.21849 0.02495,0 0.160265,-0.25577 0.300703,-0.56838 z M 9.362923,683.56303 c 0.1820985,-0.36051 0.4826535,-0.91261 0.6679,-1.2269 0.467901,-0.79383 1.890556,-2.69439 2.507972,-3.35046 0.664789,-0.70641 1.79271,-1.70985 2.473705,-2.2007 0.295625,-0.21309 0.5375,-0.41795 0.5375,-0.45525 0,-0.0871 -0.189524,-0.30662 -0.903531,-1.04657 -1.481181,-1.53498 -3.182442,-2.77964 -4.721469,-3.45426 -0.9675085,-0.4241 -0.904934,-0.41872 -1.08375,-0.0932 -0.2268945,0.41306 -0.6614565,1.65738 -0.861211,2.46597 -0.334608,1.35447 -0.3998435,1.93958 -0.400998,3.59664 -0.00117,1.68161 0.061326,2.22427 0.4256,3.69538 0.2615795,1.05639 0.865031,2.72479 0.985541,2.72479 0.022908,0 0.190642,-0.29496 0.372741,-0.65546 z m -3.862772,-3.7311 c 0.488517,-2.0649 1.1218655,-3.80456 1.8554565,-5.09651 0.09575,-0.16863 0.237339,-0.54678 0.314642,-0.84034 0.1866485,-0.70879 0.7346025,-2.20159 0.95472,-2.60096 0.2147635,-0.38966 0.269336,-0.3963 0.966945,-0.11765 0.2777055,0.11092 0.5542805,0.20168 0.6146095,0.20168 0.06033,0 0.212917,-0.0822 0.339083,-0.18259 0.126166,-0.10042 0.589393,-0.39876 1.029393,-0.66297 0.44,-0.26421 0.797872,-0.50725 0.795271,-0.5401 -0.0081,-0.10283 -1.765151,-1.28628 -2.420271,-1.6302 -0.675255,-0.35448 -1.3023615,-0.62434 -2.187449,-0.94131 -0.5126365,-0.18359 -0.569446,-0.19202 -0.641457,-0.0952 -0.1156875,0.15555 -0.7258025,1.86896 -1.0160115,2.85332 -0.4518225,1.53253 -0.791493,3.20463 -0.981024,4.8293 -0.1106695,0.94867 -0.153844,3.33474 -0.07797,4.30905 0.068173,0.87542 0.144621,1.40524 0.2027615,1.40524 0.02231,0 0.1353955,-0.40084 0.251301,-0.89076 z m -5.11856223,23.28971 c -0.1234544,-0.59158 -0.11281939,-0.66671 0.10591123,-0.7482 2.1371422,-0.79618 6.2246795,-2.23028 6.2781795,-2.20268 0.072607,0.0375 0.269199,0.96442 0.2188845,1.03207 -0.039979,0.0538 -6.31904235,2.30978 -6.4286721,2.30978 -0.0703047,0 -0.11243486,-0.0945 -0.17430313,-0.39097 z m 43.82593723,-0.8842 c -1.71461,-0.62232 -3.13948,-1.16108 -3.166376,-1.19724 -0.03187,-0.0429 -0.017,-0.22667 0.04269,-0.52777 0.08034,-0.40526 0.106918,-0.46397 0.216376,-0.47799 0.06863,-0.009 1.531034,0.49273 3.249784,1.11449 3.54223,1.28141 3.238299,1.10029 3.063883,1.82586 -0.06602,0.27463 -0.114607,0.37288 -0.188883,0.38194 -0.055,0.007 -1.502863,-0.49698 -3.217474,-1.11929 z M 0,698.57143 v -0.5724 l 3.2625,0.0173 3.2625,0.0173 v 0.53782 0.53781 L 3.2625,699.12654 0,699.14383 Z m 41.470975,0.34627 c -0.01424,-0.0499 -0.01916,-0.29947 -0.01093,-0.55462 l 0.01496,-0.46392 3.2625,-0.0173 3.2625,-0.0173 v 0.57192 0.57191 h -3.251569 c -2.682653,0 -3.256099,-0.0159 -3.277456,-0.0907 z M 3.85,695.82325 c -1.25125,-0.45408 -2.5923825,-0.93971 -2.9802943,-1.07918 -0.38791186,-0.13946 -0.73437871,-0.27774 -0.76992633,-0.30728 -0.05196226,-0.0432 -0.04628725,-0.1488 0.02894986,-0.53883 0.05147,-0.26682 0.12000659,-0.49875 0.15230344,-0.51542 0.10493906,-0.0541 6.12748233,2.1489 6.15696883,2.25222 0.043959,0.15402 -0.153597,0.98345 -0.2381125,0.9997 C 6.1587,696.64238 5.10125,696.27734 3.85,695.82325 Z m 37.855702,0.5465 c -0.110785,-0.40068 -0.172535,-0.8614 -0.124168,-0.92643 0.06629,-0.0891 6.006699,-2.22928 6.112434,-2.20213 0.05446,0.014 0.112142,0.18084 0.175891,0.50877 0.05217,0.26837 0.08208,0.50514 0.06645,0.52615 -0.02409,0.0324 -6.101299,2.2449 -6.166164,2.2449 -0.01244,0 -0.04144,-0.0681 -0.06444,-0.15126 z"
       id="path4554"
       inkscape:connector-curvature="0" />
    <path
       style="fill:#6d6d6d;stroke-width:0.0579771"
       d="m 22.625,713.93135 c -3.368464,-0.40227 -6.164592,-1.64306 -8.744331,-3.88033 -0.975852,-0.84631 -1.688836,-1.62475 -2.622802,-2.86359 -2.362209,-3.13331 -3.7968655,-6.95427 -4.1808665,-11.135 -0.142002,-1.54602 -0.079412,-4.20574 0.1280645,-5.44205 0.090282,-0.53798 0.073593,-0.62535 -0.2394555,-1.25372 -1.4162235,-2.84271 -2.3403304,-6.01657 -2.6998395,-9.27263 -0.1386049,-1.25534 -0.1245489,-4.17016 0.026386,-5.47181 0.2455673,-2.11773 0.6967525,-4.02464 1.4094066,-5.95676 0.577679,-1.56618 0.9449035,-2.30227 1.245228,-2.49603 l 0.221791,-0.14309 0.628209,0.22372 c 1.4239225,0.50709 2.6874654,1.1581 4.2282094,2.1785 2.173652,1.43955 4.182672,3.20327 5.956524,5.22922 0.315297,0.36011 0.651441,0.74377 0.746986,0.85258 0.169059,0.19254 0.180731,0.19576 0.435105,0.11995 2.340576,-0.69754 3.953353,-0.91124 5.78921,-0.76709 1.422902,0.11171 2.130968,0.25152 3.861962,0.76254 0.189373,0.0559 0.312644,0.063 0.35575,0.0206 0.03628,-0.0357 0.333375,-0.3775 0.660213,-0.75951 3.0242,-3.53471 6.929569,-6.39825 10.45172,-7.66354 l 0.55747,-0.20027 0.233248,0.14474 c 0.200383,0.12434 0.278798,0.23946 0.556512,0.817 1.111657,2.31184 1.917554,5.46709 2.172097,8.5042 0.07993,0.95371 0.06754,3.18755 -0.02315,4.1745 -0.30103,3.27588 -1.114047,6.27833 -2.492201,9.20365 -0.165483,0.35126 -0.363313,0.77479 -0.439622,0.94118 l -0.138745,0.30252 0.09229,0.67227 c 0.224177,1.63291 0.256573,4.07722 0.07529,5.68067 -0.465316,4.11571 -1.936631,7.86973 -4.281587,10.92437 -2.760252,3.59562 -6.3252,5.78383 -10.519072,6.45672 -0.777476,0.12475 -2.751125,0.17994 -3.45,0.0965 z m 3.675,-1.57244 c 2.99805,-0.52248 5.724788,-1.96981 8.039202,-4.26715 0.308439,-0.30617 0.560798,-0.57859 0.560798,-0.60539 0,-0.0268 -0.09001,-0.10212 -0.200016,-0.16738 -0.658519,-0.39064 -0.997785,-2.9329 -0.934109,-6.99966 0.03997,-2.55303 0.207179,-4.94064 0.509828,-7.28016 0.06836,-0.52845 0.124297,-0.99134 0.124297,-1.02864 0,-0.10112 -0.309566,-0.2562 -0.820247,-0.4109 -0.538577,-0.16315 -1.586885,-0.19526 -2.054753,-0.0629 -1.164446,0.32934 -2.223318,1.11756 -3.218351,2.39575 -0.216019,0.27749 -0.420333,0.50452 -0.454033,0.50452 -0.08054,0 -0.702616,-0.80447 -0.702616,-0.90863 0,-0.1164 0.810022,-1.14866 1.253056,-1.59685 0.844509,-0.85433 1.77546,-1.45369 2.713751,-1.74715 0.374288,-0.11707 0.618423,-0.14347 1.333193,-0.14417 0.790479,-7.8e-4 0.930542,0.0174 1.45,0.18798 0.31625,0.10386 0.617991,0.19334 0.670536,0.19883 0.08102,0.008 0.124166,-0.12387 0.283928,-0.87087 0.641046,-2.99737 1.407583,-4.59348 2.263042,-4.71219 0.249466,-0.0346 0.320029,-0.014 0.610758,0.17843 0.180788,0.11967 0.339721,0.20277 0.353184,0.18467 0.04103,-0.0552 -0.730497,-1.5405 -1.173003,-2.25825 -0.89541,-1.45237 -2.378818,-3.18191 -3.608445,-4.20716 -4.003405,-3.338 -9.061909,-4.35231 -13.75,-2.75708 -2.248133,0.76498 -4.127772,1.94487 -5.86431,3.68117 -3.019639,3.01921 -5.0938605,7.05979 -5.3874805,10.49481 -0.028801,0.33693 -0.090627,0.94537 -0.1373915,1.3521 -0.1224115,1.06463 -0.1186255,3.74083 0.0068,4.80672 0.4057105,3.4478 1.583689,6.64634 3.429082,9.31092 2.853373,4.12002 7.094893,6.6515 11.5283,6.88047 1.050203,0.0542 2.348971,-0.008 3.175,-0.15181 z m -2.737516,-4.14235 c -1.123136,-0.20541 -2.188667,-0.98147 -2.928749,-2.13308 -0.86097,-1.33973 -1.443358,-2.99951 -2.060016,-5.87096 C 18.423173,699.51151 18.3,698.90921 18.3,698.87407 c 0,-0.0351 0.07008,-0.11262 0.155734,-0.17217 l 0.155733,-0.10828 0.322104,0.47451 c 0.571961,0.8426 1.297245,1.18933 2.366429,1.13131 0.446615,-0.0242 0.664311,-0.0715 0.975,-0.21147 0.547189,-0.2466 1.056904,-0.59351 1.319287,-0.8979 0.183967,-0.21342 0.213252,-0.27996 0.18182,-0.41311 -0.06308,-0.26722 -0.426165,-0.7384 -0.95099,-1.23411 -0.951058,-0.89829 -1.128797,-1.16047 -1.01479,-1.4969 0.168715,-0.49786 0.971055,-0.4757 1.847207,0.051 l 0.345064,0.20745 0.386201,-0.24222 C 24.60121,695.829 24.87625,695.68921 25,695.65156 c 0.748944,-0.22782 1.292689,0.11599 1.089496,0.6889 -0.077,0.2171 -0.149544,0.29933 -1.106887,1.25471 C 24.494877,698.0819 24.2,698.51474 24.2,698.74394 c 0,0.186 0.587821,0.85437 0.974624,1.10817 0.463288,0.30399 0.861882,0.4336 1.33342,0.4336 0.894236,0 1.536733,-0.3909 2.548833,-1.55074 0.178055,-0.20405 0.185146,-0.20615 0.3375,-0.10022 0.09281,0.0645 0.155623,0.1607 0.155623,0.23826 0,0.23864 -0.498895,2.35807 -0.781516,3.32007 -0.836398,2.84698 -1.87633,4.67616 -3.152366,5.54484 -0.556058,0.37855 -1.455156,0.5881 -2.053634,0.47864 z m 1.381706,-0.77274 c 1.191207,-0.50595 2.124049,-1.80972 2.981118,-4.16651 0.430142,-1.18282 1.037506,-3.40014 0.959929,-3.50444 -0.01137,-0.0153 -0.157394,0.0949 -0.324488,0.24496 -0.281282,0.25255 -0.311842,0.30524 -0.412189,0.71067 -0.125533,0.5072 -0.602387,1.78862 -0.678248,1.82262 -0.02832,0.0127 -0.225738,-0.27748 -0.438708,-0.64483 -0.55655,-0.95999 -0.599962,-1.01553 -0.793712,-1.01553 -0.481316,0 -1.285256,-0.46018 -1.825537,-1.04494 -0.185545,-0.20082 -0.356829,-0.36551 -0.380631,-0.36598 -0.0238,-4.7e-4 -0.195976,0.13564 -0.38261,0.30246 -0.585145,0.52303 -1.224581,0.84068 -1.977313,0.98227 l -0.431168,0.0811 -0.457817,0.79489 c -0.251799,0.4372 -0.492135,0.79524 -0.534081,0.79566 -0.07259,7.2e-4 -0.359507,-0.80446 -0.58507,-1.64187 -0.0736,-0.27323 -0.13222,-0.36556 -0.332616,-0.52387 -0.133799,-0.10569 -0.261079,-0.18332 -0.282843,-0.1725 -0.05266,0.0262 0.255208,1.38036 0.524903,2.30886 0.756029,2.60284 1.729555,4.16571 3.027699,4.86056 0.326839,0.17495 0.502814,0.23476 1.099192,0.37357 0.25331,0.059 0.872024,-0.0391 1.24419,-0.19715 z m 2.698366,-6.22561 c 0.16399,-0.4992 0.190959,-0.66359 0.108865,-0.66359 -0.169553,0 -0.815611,0.2404 -0.835757,0.31099 -0.03242,0.11359 0.387005,0.82332 0.489391,0.82812 0.0523,0.002 0.134647,-0.16243 0.237501,-0.47552 z m -6.964968,-0.13079 c 0.07257,-0.1408 0.119047,-0.28405 0.103286,-0.31834 -0.01576,-0.0343 -0.124781,-0.0823 -0.242266,-0.10659 -0.117484,-0.0243 -0.286733,-0.0619 -0.376108,-0.0835 -0.198791,-0.0481 -0.205447,0.0165 -0.05376,0.52133 0.159776,0.53175 0.184623,0.56179 0.321584,0.38879 0.06342,-0.0801 0.174692,-0.26086 0.247261,-0.40165 z M 19.425,693.85973 c -2.193513,-2.76094 -4.68871,-3.18194 -7.243911,-1.22223 -0.474976,0.36428 -1.327937,1.19487 -1.527304,1.48725 -0.06667,0.0978 -0.157711,0.17777 -0.202316,0.17777 -0.133666,0 -0.774819,-0.82962 -0.73877,-0.95593 0.050375,-0.17651 0.77106,-0.97048 1.362301,-1.50084 0.942983,-0.84588 1.947742,-1.42374 2.994797,-1.72239 0.657044,-0.18741 1.807408,-0.2007 2.405203,-0.0278 0.967386,0.27983 1.865727,0.81777 2.691363,1.61164 0.494607,0.47557 1.433637,1.61917 1.433637,1.74594 0,0.0893 -0.666507,0.91869 -0.733957,0.91331 -0.02257,-0.002 -0.221043,-0.22983 -0.441043,-0.50674 z m 21.411076,-6.22948 c 0.659726,-1.52862 1.226534,-3.21603 1.530099,-4.55516 0.200284,-0.88352 0.522149,-2.72264 0.594059,-3.39442 0.107449,-1.00378 0.07885,-3.49973 -0.05354,-4.67227 -0.220321,-1.95135 -0.652398,-3.91378 -1.287746,-5.84874 -0.443745,-1.35143 -0.696294,-1.94958 -0.823144,-1.94958 -0.146407,0 -1.447805,0.49878 -2.212684,0.84804 -1.301214,0.59417 -3.76624,2.3674 -5.576021,4.01115 -1.218764,1.10695 -2.881938,2.87255 -2.845262,3.02049 0.0096,0.0386 0.218933,0.16835 0.465273,0.28842 0.24634,0.12008 0.735629,0.3898 1.087308,0.5994 l 0.639417,0.38107 0.139809,-0.15411 c 0.0769,-0.0848 0.356949,-0.39902 0.622342,-0.69835 1.036552,-1.16909 2.377358,-2.33025 3.609015,-3.12545 1.063658,-0.68674 2.629209,-1.40284 2.880268,-1.31746 0.210264,0.0715 0.786139,1.42189 1.114725,2.61395 0.670524,2.43257 0.754326,4.8878 0.251613,7.37177 -0.249609,1.23335 -0.726124,2.64657 -1.292887,3.83439 l -0.237063,0.49683 0.273468,0.78048 c 0.219304,0.62589 0.50035,1.56544 0.66079,2.20905 0.04364,0.17507 0.114807,0.0607 0.460162,-0.7395 z m -33.066052,-0.0672 c 0.1031455,-0.379 0.358629,-1.15639 0.5677415,-1.72755 L 8.71797,684.797 8.5563135,684.42371 c -0.573451,-1.32419 -1.0241785,-2.85346 -1.238047,-4.20055 -0.1922615,-1.211 -0.2222015,-3.08844 -0.068681,-4.30675 0.060539,-0.48043 0.154207,-1.02497 0.2081505,-1.21009 0.053943,-0.18511 0.166595,-0.59371 0.250336,-0.908 0.191512,-0.71876 0.619133,-1.88006 0.8891295,-2.41463 0.2519895,-0.49892 0.28496,-0.50439 1.0459765,-0.17361 0.297731,0.12942 0.586987,0.2353 0.642792,0.2353 0.124811,0 0.791977,0.35832 1.476387,0.79293 1.232513,0.78267 2.788821,2.14746 3.797224,3.32995 0.210381,0.2467 0.415232,0.44855 0.455223,0.44855 0.03999,0 0.238646,-0.10012 0.441454,-0.22248 0.202808,-0.12236 0.571242,-0.32415 0.818742,-0.44843 0.2475,-0.12428 0.468294,-0.24692 0.490653,-0.27252 0.04876,-0.0559 -0.800579,-1.01421 -1.665653,-1.87946 -0.8399,-0.84007 -1.680232,-1.5933 -2.525,-2.26327 -0.385,-0.30534 -0.80125,-0.6444 -0.925,-0.75346 -0.419296,-0.36952 -1.922073,-1.40823 -2.475,-1.71071 -0.9828395,-0.53765 -2.914766,-1.31438 -3.030342,-1.21834 -0.086805,0.0721 -0.7971005,2.06126 -1.08118,3.02777 -0.6248965,2.12605 -0.9605345,4.13873 -1.059083,6.35087 -0.067281,1.51029 0.043926,3.56362 0.2248345,4.15137 0.037841,0.12295 0.1147035,0.48597 0.1708045,0.80673 0.2617225,1.49638 0.667658,3.01097 1.194097,4.45529 0.34344,0.94225 0.887746,2.21193 0.9482475,2.21193 0.02206,0 0.1245,-0.31008 0.2276455,-0.68907 z m 31.646667,-2.9916 c 0.708374,-1.5141 1.186565,-3.122 1.414534,-4.7563 0.07179,-0.51467 0.09349,-0.9796 0.09257,-1.9832 -0.0014,-1.48335 -0.08874,-2.25626 -0.401551,-3.55185 -0.194218,-0.8044 -0.694873,-2.21339 -0.90784,-2.55492 l -0.139938,-0.22441 -0.474735,0.18267 c -1.470981,0.566 -3.206158,1.73789 -4.699083,3.17363 -0.705439,0.67842 -1.557655,1.63571 -1.535548,1.72488 0.0099,0.0397 0.220933,0.22658 0.469064,0.41517 2.280237,1.73313 4.18641,4.11397 5.552913,6.93567 0.237258,0.48992 0.449443,0.89076 0.471521,0.89076 0.02208,0 0.09322,-0.11345 0.158089,-0.2521 z M 9.348379,683.61669 c 1.38718,-2.77383 3.67503,-5.47735 5.94264,-7.02234 0.138547,-0.0944 0.265108,-0.20035 0.281245,-0.23546 0.01614,-0.0351 -0.201645,-0.31771 -0.483961,-0.628 -1.697745,-1.86601 -3.638098,-3.30514 -5.453707,-4.04494 -0.3247225,-0.13232 -0.609863,-0.24057 -0.6336465,-0.24057 -0.065002,0 -0.3773705,0.6945 -0.62543,1.39054 -0.9576235,2.68703 -1.099394,5.78372 -0.3949215,8.62626 0.2716815,1.09624 0.923242,2.86983 1.023635,2.7864 0.026479,-0.022 0.181345,-0.30635 0.344146,-0.63189 z m -8.89088945,19.77827 c -0.0613734,-0.15687 -0.17972586,-0.88327 -0.15034673,-0.92277 0.0503493,-0.0677 6.44446018,-2.34118 6.47374968,-2.3018 0.068854,0.0926 0.2164935,0.95245 0.1734675,1.0103 -0.043521,0.0585 -6.2672802,2.32869 -6.3901008,2.33085 -0.0334075,6e-4 -0.0814538,-0.0519 -0.10676965,-0.11658 z M 44.225381,702.22849 c -1.732291,-0.62796 -3.16757,-1.16589 -3.189511,-1.19539 -0.06334,-0.0851 0.137814,-0.97965 0.225506,-1.00281 0.04193,-0.0111 1.389645,0.45247 2.994928,1.0301 3.798006,1.36663 3.444296,1.22289 3.440642,1.39816 -0.0057,0.27503 -0.174503,0.88487 -0.248611,0.89835 -0.04033,0.007 -1.490663,-0.50045 -3.222954,-1.12841 z M 0,698.57143 V 698 h 3.2446506 c 2.9125724,0 3.2477569,0.0109 3.2749999,0.10634 0.039307,0.13772 0.039307,0.79246 0,0.93018 -0.027243,0.0955 -0.3624275,0.10634 -3.2749999,0.10634 H 0 Z m 41.510364,0.35679 c -0.0623,-0.0838 -0.08377,-0.76798 -0.03001,-0.95633 0.02724,-0.0955 0.362605,-0.10634 3.277022,-0.10634 h 3.246672 l -0.01452,0.55462 -0.01452,0.55462 -3.202136,0.0173 c -2.449022,0.0132 -3.216334,-0.002 -3.2625,-0.0639 z M 3.1091299,695.54637 c -1.6587286,-0.60283 -3.02655736,-1.11042 -3.03961955,-1.12798 -0.02807259,-0.0378 0.1200967,-0.85843 0.1775498,-0.98342 0.0306123,-0.0666 0.73386155,0.16289 3.08379765,1.00631 1.6742782,0.60092 3.0644837,1.11666 3.0893452,1.14609 0.070037,0.0829 -0.1298755,1.03072 -0.220203,1.04402 -0.04125,0.006 -1.4321416,-0.48219 -3.0908701,-1.08502 z m 38.5893371,0.73392 c -0.102027,-0.36081 -0.160944,-0.77773 -0.11772,-0.83304 0.02434,-0.0312 1.412761,-0.54927 3.085383,-1.15137 2.387544,-0.85947 3.049858,-1.07576 3.081737,-1.0064 0.055,0.11965 0.219386,0.94503 0.194801,0.97808 -0.03511,0.0472 -6.004666,2.18622 -6.101313,2.18622 -0.05486,0 -0.114205,-0.0721 -0.142888,-0.17349 z"
       id="path4552"
       inkscape:connector-curvature="0" />
    <path
       style="fill:#5a5a5a;stroke-width:0.0579771"
       d="m 23,713.95944 c -2.644509,-0.24852 -4.994105,-1.05897 -7.175,-2.47489 -4.794604,-3.11283 -7.9725875,-8.60302 -8.700525,-15.03077 -0.182652,-1.61284 -0.1497655,-4.02335 0.077922,-5.7115 l 0.09558,-0.70867 -0.141771,-0.30252 c -0.077974,-0.16638 -0.2781155,-0.59166 -0.4447585,-0.94505 -1.2618895,-2.67601 -2.0610195,-5.53208 -2.4251863,-8.66755 -0.1550901,-1.33532 -0.152272,-3.99335 0.0057,-5.37899 0.3236922,-2.83921 1.0852202,-5.64258 2.1049662,-7.7489 0.277872,-0.57395 0.383455,-0.73696 0.5310545,-0.81988 0.251843,-0.14148 0.2935455,-0.13602 0.997273,0.13059 3.4792121,1.31812 6.9775201,3.88285 10.0408951,7.36131 0.407635,0.46287 0.790135,0.89321 0.85,0.95632 0.103283,0.10888 0.1344,0.10629 0.608846,-0.0506 1.1161,-0.36907 2.319734,-0.60947 3.35662,-0.6704 0.353859,-0.0208 0.75541,-0.0502 0.892335,-0.0653 0.371672,-0.041 2.064711,0.085 2.750284,0.20469 0.678274,0.11842 1.709544,0.3769 2.28941,0.57382 l 0.38865,0.13198 0.53635,-0.62421 c 2.781633,-3.23725 6.019037,-5.81781 9.080499,-7.23813 0.871172,-0.40417 1.932235,-0.81496 2.093108,-0.81035 0.400875,0.0115 0.772515,0.65822 1.48542,2.585 0.711512,1.92301 1.164123,3.83491 1.410168,5.95676 0.151011,1.3023 0.165004,4.21694 0.02627,5.47181 -0.356731,3.2267 -1.211361,6.18351 -2.646819,9.15735 l -0.396393,0.8212 0.102508,0.79224 c 0.390054,3.01452 0.209334,5.98332 -0.542738,8.91588 -1.353688,5.27844 -4.589775,9.74248 -8.829445,12.17983 -2.165336,1.24483 -4.66379,1.9525 -7.096227,2.00995 -0.5775,0.0136 -1.17375,0.0132 -1.325,-10e-4 z m 3.025,-1.53827 c 2.862603,-0.45278 5.468354,-1.71017 7.683739,-3.70775 0.641643,-0.57855 1.241261,-1.20875 1.241261,-1.30455 0,-0.0354 -0.04327,-0.0643 -0.09616,-0.0643 -0.298132,0 -0.624333,-0.74468 -0.7951,-1.81513 -0.199173,-1.2485 -0.233849,-1.9394 -0.231132,-4.60504 0.0032,-3.11443 0.129082,-5.11194 0.501981,-7.96398 0.148623,-1.13671 0.175128,-1.05651 -0.420358,-1.27186 -1.986345,-0.71833 -3.844311,-0.006 -5.498641,2.10937 -0.274939,0.35149 -0.516159,0.63907 -0.536045,0.63907 -0.06523,0 -0.724541,-0.81862 -0.724541,-0.89962 0,-0.0435 0.140625,-0.26303 0.3125,-0.48789 2.021438,-2.64461 4.231599,-3.5562 6.641263,-2.73919 0.275214,0.0933 0.524408,0.1589 0.553765,0.14574 0.02936,-0.0132 0.137251,-0.4161 0.239765,-0.89543 0.259952,-1.21546 0.47022,-1.96281 0.791279,-2.81242 0.310796,-0.82244 0.753215,-1.52771 1.086428,-1.7319 0.373287,-0.22874 0.790287,-0.14351 1.172214,0.23957 0.09472,0.095 0.179093,0.17274 0.1875,0.17274 0.128592,0 -0.456897,-1.22883 -1.088307,-2.28416 -2.580237,-4.31255 -6.595194,-7.1075 -11.221407,-7.81162 -0.837088,-0.1274 -2.997901,-0.10754 -3.875,0.0356 -2.86091,0.46697 -5.485477,1.71837 -7.591567,3.61967 -3.279014,2.96016 -5.7256275,7.39905 -6.058976,10.9928 -0.030128,0.3248 -0.088976,0.91543 -0.130775,1.31253 -0.1865545,1.77227 -0.1743065,3.69046 0.034166,5.35082 0.8430205,6.71419 4.763529,12.36771 10.233814,14.75756 1.431994,0.62561 2.761976,0.95795 4.588338,1.14654 0.502734,0.0519 2.367543,-0.0271 3,-0.12717 z m -2.849221,-4.31424 c -1.490523,-0.42938 -2.701119,-1.83125 -3.545438,-4.10562 -0.416088,-1.12082 -0.745076,-2.33932 -1.130108,-4.18564 -0.189328,-0.90788 -0.197308,-0.98001 -0.117145,-1.05883 0.158213,-0.15554 0.296064,-0.0986 0.440669,0.18193 0.165972,0.32201 0.573556,0.75562 0.883612,0.94002 0.679313,0.40403 1.655805,0.47478 2.417631,0.17519 0.802077,-0.31543 1.675,-0.97366 1.675,-1.26305 0,-0.33629 -0.337615,-0.77852 -1.243518,-1.62884 -0.761683,-0.71495 -0.920773,-1.06261 -0.627963,-1.37229 0.289183,-0.30584 0.883854,-0.24454 1.598538,0.1648 0.221131,0.12665 0.426145,0.23027 0.455584,0.23027 0.02944,0 0.198566,-0.0884 0.375836,-0.19649 0.381149,-0.23236 0.859928,-0.40855 1.110228,-0.40855 0.358136,0 0.681295,0.2665 0.681295,0.56185 0,0.18713 -0.272802,0.53682 -0.926138,1.18718 -0.690387,0.68725 -1.023862,1.13733 -1.023862,1.38188 0,0.0957 0.108561,0.28387 0.304558,0.52784 0.643941,0.80158 1.527358,1.18992 2.378817,1.04569 0.680545,-0.11528 1.276628,-0.50336 1.951247,-1.27036 0.197793,-0.22488 0.392175,-0.40887 0.431961,-0.40887 0.03979,0 0.122893,0.055 0.184681,0.12231 l 0.112342,0.12232 -0.188003,0.86928 c -1.081536,5.00077 -2.533188,7.6714 -4.546101,8.36354 -0.473034,0.16266 -1.139713,0.17251 -1.653723,0.0244 z m 1.586429,-0.55631 c 0.697066,-0.23971 1.258615,-0.70934 1.864065,-1.55895 0.834551,-1.17111 1.51044,-2.88283 2.118933,-5.3663 0.112768,-0.46025 0.188105,-0.85927 0.167414,-0.88671 -0.02069,-0.0274 -0.179711,0.0786 -0.353378,0.2357 -0.290173,0.26245 -0.324973,0.32069 -0.42947,0.71864 -0.140303,0.53433 -0.615115,1.8112 -0.673501,1.8112 -0.03361,0 -0.77251,-1.212 -0.912222,-1.49629 -0.01702,-0.0346 -0.230773,-0.11704 -0.475,-0.18312 -0.720472,-0.19493 -1.16229,-0.4763 -1.738117,-1.10691 -0.153736,-0.16836 -0.289647,-0.30612 -0.302025,-0.30612 -0.01238,0 -0.204524,0.16381 -0.426989,0.36402 -0.478482,0.43061 -1.104484,0.75423 -1.726918,0.89275 -0.2475,0.0551 -0.495,0.11131 -0.55,0.12494 -0.05635,0.014 -0.305053,0.37808 -0.56977,0.83415 -0.258373,0.44515 -0.485867,0.80935 -0.505542,0.80935 -0.04163,0 -0.372876,-0.95495 -0.501359,-1.44537 -0.04843,-0.18488 -0.103893,-0.38861 -0.123245,-0.45274 -0.03072,-0.1018 -0.508622,-0.52205 -0.593671,-0.52205 -0.06076,0 -0.02991,0.22081 0.125339,0.89705 0.519127,2.2612 1.185993,3.97829 1.959278,5.04489 1.008149,1.39055 2.428428,2.01062 3.646178,1.59187 z m 2.887998,-6.34054 c 0.118201,-0.33774 0.176142,-0.57895 0.148171,-0.61684 -0.04125,-0.0559 -0.803742,0.11904 -0.913594,0.20959 -0.06806,0.0561 0.425657,0.96188 0.524291,0.96188 0.02587,0 0.134375,-0.24958 0.241132,-0.55463 z m -7.056214,0.0533 C 20.707296,701.06161 20.8,700.85508 20.8,700.80442 c 0,-0.0601 -0.110648,-0.11952 -0.318265,-0.17095 C 20.050853,700.52672 20,700.53212 20,700.68464 c 0,0.20267 0.255759,0.94561 0.325528,0.94561 0.03435,0 0.15516,-0.16509 0.268464,-0.36686 z M 23.8,697.19464 v -0.60367 l -0.187838,-0.12885 c -0.340459,-0.23353 -0.824063,-0.4117 -1.117469,-0.4117 -0.489518,0 -0.443136,0.11202 0.355307,0.85807 0.26125,0.24411 0.563425,0.54419 0.6715,0.66684 0.108075,0.12264 0.21495,0.22299 0.2375,0.22299 0.02255,0 0.041,-0.27165 0.041,-0.60368 z m 0.57975,0.46187 c 0.05239,-0.078 0.2865,-0.32516 0.52025,-0.54926 1.01168,-0.96994 1.065111,-1.09085 0.461281,-1.04385 -0.324753,0.0253 -0.454342,0.0737 -0.7875,0.29435 l -0.398781,0.2641 -0.01485,0.49791 c -0.02088,0.70006 0.02863,0.82107 0.219598,0.53675 z m -4.968732,-3.82533 c -0.790005,-1.01764 -1.789283,-1.81707 -2.736018,-2.18884 -0.610237,-0.23963 -1.639986,-0.29933 -2.3,-0.13335 -1.196948,0.30101 -2.486623,1.16501 -3.559622,2.38473 -0.197792,0.22484 -0.378396,0.4088 -0.401341,0.4088 -0.02294,0 -0.196217,-0.20933 -0.385048,-0.46518 L 9.6856595,693.37215 9.88033,693.12683 c 1.194114,-1.50484 2.91123,-2.69284 4.365981,-3.02063 0.599763,-0.13514 1.563035,-0.13611 2.13442,-0.002 1.223169,0.2868 2.499654,1.17186 3.553831,2.46409 0.252759,0.30983 0.505162,0.64128 0.560895,0.73655 l 0.101333,0.1732 -0.343534,0.44592 c -0.188943,0.24526 -0.362596,0.44473 -0.385895,0.44328 -0.0233,-0.001 -0.228653,-0.24263 -0.456343,-0.53592 z m 21.411667,-6.11666 c 0.887828,-2.01102 1.462012,-3.90988 1.880436,-6.21872 0.249836,-1.37858 0.297241,-1.85709 0.329676,-3.32773 0.06399,-2.90116 -0.294323,-5.42342 -1.18371,-8.33253 -0.290627,-0.95062 -0.860368,-2.49856 -0.960932,-2.61078 -0.114517,-0.12778 -2.050568,0.63439 -3.113155,1.22558 -0.75149,0.4181 -2.507006,1.67999 -3.717147,2.67193 -1.44957,1.1882 -3.882853,3.6564 -3.882853,3.93857 0,0.0751 0.18028,0.2006 0.6,0.41775 0.33,0.17073 0.808156,0.4373 1.062568,0.59238 0.254413,0.15509 0.485983,0.28197 0.5146,0.28197 0.02862,0 0.214212,-0.18973 0.412432,-0.42162 1.915644,-2.24105 4.320748,-4.03081 6.407162,-4.76788 l 0.438853,-0.15504 0.163808,0.25415 c 0.22857,0.35463 0.78241,1.83073 0.992216,2.64446 0.09645,0.37407 0.233067,1.02609 0.303602,1.44894 0.517643,3.1032 0.08475,6.19965 -1.296479,9.27361 -0.178069,0.3963 -0.323762,0.75408 -0.323762,0.79507 0,0.041 0.07985,0.28772 0.177452,0.5483 0.205511,0.54869 0.584254,1.77927 0.675611,2.19514 0.03452,0.15714 0.09212,0.28571 0.128008,0.28571 0.03588,0 0.212109,-0.33267 0.391614,-0.73926 z M 7.8021895,687.59664 c 0.119577,-0.43446 0.385302,-1.24168 0.5905,-1.79384 l 0.373087,-1.00392 -0.136104,-0.307 c -0.292378,-0.6595 -0.830369,-2.22383 -0.9957065,-2.89524 -0.491854,-1.99734 -0.5917645,-4.15831 -0.2840055,-6.14278 0.2452025,-1.5811 1.1979915,-4.3411 1.538242,-4.45592 0.1332425,-0.045 1.2437695,0.39478 2.0117975,0.79663 1.425666,0.74593 3.183588,2.17512 4.482675,3.64439 0.264655,0.29933 0.508608,0.57161 0.542116,0.60506 0.03981,0.0397 0.318965,-0.0798 0.805567,-0.34509 0.409553,-0.22326 0.829017,-0.44205 0.932142,-0.48621 0.103125,-0.0442 0.1875,-0.10789 0.1875,-0.14163 0,-0.0859 -0.836184,-1.01223 -1.725,-1.91087 -0.892509,-0.90239 -1.947768,-1.84022 -2.875,-2.55509 -0.37125,-0.28622 -0.735216,-0.57775 -0.808813,-0.64785 -0.340955,-0.32473 -2.420472,-1.62032 -3.091187,-1.92588 -1.115434,-0.50816 -2.096613,-0.85643 -2.1935005,-0.77858 -0.120379,0.0967 -0.7401805,1.78797 -1.09301,2.98247 -0.5203375,1.76161 -0.8529665,3.48232 -1.0201525,5.27732 -0.096847,1.03979 -0.081748,3.39848 0.027973,4.36974 0.050123,0.4437 0.112562,0.88236 0.1387525,0.97479 0.02619,0.0924 0.1331525,0.62185 0.2376935,1.17647 0.250909,1.33116 0.5746045,2.51318 1.055555,3.85453 0.3878555,1.08171 0.9819955,2.49841 1.047791,2.49841 0.018521,0 0.1315105,-0.35546 0.2510875,-0.78991 z m 31.7005135,-3.12605 c 0.295317,-0.61991 0.815039,-2.07812 0.995844,-2.79409 0.743258,-2.9432 0.623546,-5.96286 -0.3458,-8.7226 -0.354748,-1.00997 -0.572987,-1.44129 -0.729255,-1.44129 -0.187163,0 -1.310361,0.50414 -1.973492,0.8858 -0.985136,0.56698 -2.168399,1.46868 -3.1,2.36233 -0.414234,0.39737 -1.303935,1.35583 -1.545421,1.66486 -0.145124,0.18572 -0.201406,0.11916 0.72333,0.85541 2.163977,1.72291 3.93453,3.98499 5.259021,6.71899 0.237341,0.48992 0.450448,0.89076 0.47357,0.89076 0.02312,0 0.132115,-0.18908 0.242203,-0.42017 z M 9.3948345,683.59664 c 0.529764,-1.0434 0.9583175,-1.73842 1.7032625,-2.76228 1.22108,-1.67828 2.482469,-2.9516 4.064403,-4.10285 0.240625,-0.17511 0.4375,-0.35553 0.4375,-0.40094 0,-0.0992 -0.539975,-0.71415 -1.225,-1.39505 -1.438188,-1.42953 -3.278829,-2.70707 -4.744002,-3.29269 -0.2717015,-0.1086 -0.54215,-0.19745 -0.600997,-0.19745 -0.162676,0 -0.559349,0.90258 -0.9091495,2.06866 -0.991191,3.30418 -0.7787905,6.96532 0.5966405,10.28428 0.1110915,0.26807 0.230221,0.48739 0.2647325,0.48739 0.034511,0 0.2201855,-0.31008 0.41261,-0.68907 z M 0.47574817,703.42857 C 0.36733076,702.99706 0.297861,702.54758 0.33249887,702.50173 0.35587449,702.47078 1.77,701.9432 3.475,701.32933 c 1.705,-0.61388 3.1398295,-1.13231 3.1885095,-1.15207 0.065868,-0.0267 0.107718,0.0259 0.163596,0.2057 0.085614,0.2755 0.154017,0.84393 0.1015565,0.84393 -0.019212,0 -1.4602035,0.51429 -3.2022033,1.14286 -1.742,0.62857 -3.18129565,1.14286 -3.1984349,1.14286 -0.0171393,0 -0.0406633,-0.0378 -0.0522756,-0.084 z M 44.27505,702.22187 c -1.732472,-0.62481 -3.170171,-1.16321 -3.194887,-1.19644 -0.04617,-0.0621 0.04584,-0.78042 0.120883,-0.94367 0.03136,-0.0682 0.736597,0.16305 3.201229,1.04982 1.738552,0.62553 3.193519,1.1689 3.23326,1.20748 0.06262,0.0608 0.06039,0.13002 -0.0167,0.51901 -0.04893,0.24687 -0.112553,0.46032 -0.141396,0.47433 -0.02884,0.014 -1.469918,-0.48572 -3.20239,-1.11053 z M 0.05,698.57143 v -0.57242 l 3.2125,0.0173 3.2125,0.0173 v 0.53782 0.53781 l -3.2125,0.0173 -3.2125,0.0173 z m 44.660404,0.38606 -3.214597,-0.0173 0.0146,-0.52052 0.0146,-0.52051 3.208681,-0.0173 3.208682,-0.0173 0.01632,0.54494 c 0.009,0.29971 0.0051,0.54951 -0.0087,0.55511 -0.01375,0.006 -1.471569,0.002 -3.239596,-0.007 z M 3.05,695.50312 c -1.63625,-0.59309 -2.98199541,-1.08753 -2.99054534,-1.09875 -0.0085499,-0.0112 0.03301659,-0.23537 0.09237006,-0.4981 0.0763966,-0.33818 0.13204908,-0.47834 0.19054535,-0.47991 0.14212456,-0.004 5.97928793,2.10378 6.04432293,2.18238 0.04871,0.0589 0.043347,0.16624 -0.025486,0.51022 -0.076067,0.38013 -0.1030495,0.43737 -0.211693,0.44908 -0.068483,0.007 -1.463264,-0.47183 -3.099514,-1.06492 z m 38.675748,0.86663 c -0.09412,-0.37459 -0.17955,-0.87444 -0.155083,-0.90734 0.01645,-0.0221 1.396636,-0.53312 3.06707,-1.13554 2.348328,-0.84691 3.04948,-1.07679 3.091498,-1.01362 0.05273,0.0793 0.239342,0.92516 0.210244,0.95298 -0.03487,0.0333 -6.071006,2.18828 -6.128546,2.18794 -0.03524,-2.1e-4 -0.07357,-0.0382 -0.08518,-0.0844 z"
       id="path4550"
       inkscape:connector-curvature="0" />
    <path
       style="fill:#515151;stroke-width:0.0579771"
       d="m 22.725,713.86555 c 0.07357,-0.0425 0.03112,-0.059 -0.160587,-0.0625 -0.429772,-0.008 -1.761986,-0.25858 -2.524653,-0.47526 -2.761532,-0.78459 -5.318667,-2.37826 -7.43976,-4.63667 -0.625299,-0.66578 -1.996053,-2.4946 -2.470561,-3.29615 -1.2998615,-2.19577 -2.332733,-5.05163 -2.7521915,-7.60974 -0.244618,-1.49182 -0.293896,-2.13259 -0.2962725,-3.85245 -0.00218,-1.58027 0.023594,-2.00303 0.2015205,-3.30494 l 0.084168,-0.61587 -0.352545,-0.72867 C 3.939144,682.92768 3.384508,676.161 5.4087515,669.69749 c 0.3507105,-1.11984 1.0676345,-2.85428 1.353217,-3.27382 0.055325,-0.0813 0.1654605,-0.16693 0.244747,-0.19035 0.079286,-0.0234 0.131383,-0.0704 0.11577,-0.10433 -0.015613,-0.034 0.019268,-0.0617 0.077515,-0.0617 0.058246,0 0.091996,0.0303 0.075,0.0672 -0.016996,0.037 0.011577,0.0672 0.063495,0.0672 0.051918,0 0.4455665,0.13552 0.874775,0.30116 2.6077975,1.00639 5.4809475,2.9565 8.0617305,5.47179 0.606139,0.59076 1.766555,1.84233 2.214156,2.38808 0.200285,0.24421 0.387787,0.44401 0.416669,0.44401 0.02888,0 0.225013,-0.0587 0.435845,-0.13035 1.351531,-0.45958 2.61475,-0.67788 4.18333,-0.72295 1.831639,-0.0526 3.072481,0.10438 4.65987,0.58956 0.37957,0.11602 0.750076,0.22588 0.823343,0.24413 0.111558,0.0278 0.208713,-0.0564 0.597613,-0.51788 2.406316,-2.85539 5.380329,-5.33648 8.219174,-6.8569 0.707718,-0.37903 1.990971,-0.94242 2.535144,-1.11301 0.211829,-0.0664 0.373626,-0.14579 0.359549,-0.17641 -0.01408,-0.0306 0.02206,-0.0557 0.08031,-0.0557 0.05825,0 0.09406,0.0258 0.07959,0.0572 -0.01447,0.0315 0.05732,0.0915 0.15955,0.13335 0.153928,0.063 0.23288,0.17159 0.459515,0.63183 0.793056,1.61052 1.527957,3.95385 1.902777,6.06726 0.287152,1.61911 0.367014,2.58743 0.368796,4.47166 0.0017,1.83088 -0.04758,2.50463 -0.302441,4.13183 -0.404143,2.58036 -1.348407,5.4913 -2.583467,7.96422 l -0.249421,0.4994 0.106364,0.87875 c 0.228141,1.88481 0.251855,3.47233 0.0789,5.2821 -0.760802,7.9611 -5.586511,14.69266 -12.120166,16.90688 -1.071834,0.36324 -2.616871,0.69896 -3.273507,0.71129 -0.186587,0.004 -0.225685,0.0196 -0.151493,0.0625 0.05898,0.0341 -0.464028,0.0578 -1.275,0.0578 -0.810972,0 -1.33398,-0.0237 -1.275,-0.0578 z m 2.605239,-1.27758 c 3.408976,-0.35687 6.555491,-1.90453 9.103447,-4.47766 0.314285,-0.31739 0.563187,-0.61032 0.553114,-0.65095 -0.01007,-0.0406 -0.08167,-0.0967 -0.159093,-0.1245 -0.450644,-0.16204 -0.752527,-1.17714 -0.936781,-3.14999 -0.101428,-1.086 -0.08479,-5.48139 0.02659,-7.02521 0.104479,-1.44816 0.292839,-3.35336 0.431642,-4.3659 0.05546,-0.40462 0.100845,-0.78911 0.100845,-0.85445 0,-0.24979 -1.180984,-0.59631 -2.019049,-0.59243 -1.480347,0.007 -2.79354,0.79155 -4.129287,2.4674 l -0.459808,0.57689 -0.323428,-0.43486 -0.323426,-0.43486 0.445915,-0.57797 c 1.896694,-2.45838 4.111656,-3.35047 6.389691,-2.5735 0.655612,0.2236 0.654778,0.22374 0.720526,-0.11788 0.543586,-2.82441 1.305563,-4.79568 2.023866,-5.23584 0.373287,-0.22874 0.790287,-0.14351 1.172214,0.23957 0.174665,0.1752 0.302786,0.22256 0.302786,0.11193 0,-0.0983 -0.655024,-1.4001 -1.038689,-2.06437 -0.44606,-0.7723 -1.341834,-2.02805 -1.93251,-2.7091 -2.161553,-2.49229 -4.794529,-4.18873 -7.728801,-4.9797 -1.303233,-0.3513 -1.981973,-0.43435 -3.55,-0.43435 -1.569849,0 -2.232919,0.0813 -3.575,0.43853 -0.7769,0.20677 -1.980124,0.63991 -2.024597,0.72881 -0.01397,0.0279 -0.295403,0.1803 -0.625403,0.33859 -2.280311,1.0938 -4.344039,2.8897 -6.142909,5.3457 -1.8874635,2.57696 -3.141624,5.59668 -3.3362485,8.03289 -0.02817,0.35262 -0.082102,0.77726 -0.1198495,0.94364 -0.187078,0.82463 -0.2600905,3.44265 -0.1331145,4.77311 0.17939,1.87967 0.5887645,3.74042 1.1797325,5.36232 0.7301485,2.00387 1.452027,3.34899 2.69972,5.03055 1.618508,2.18131 3.24424,3.612 5.452669,4.79848 1.703753,0.91534 3.345943,1.4045 5.5,1.63829 0.478196,0.0519 1.862872,0.0388 2.455239,-0.0232 z m -1.947251,-4.50714 c -1.756188,-0.39632 -3.093374,-2.06045 -4.000145,-4.97822 -0.252154,-0.81136 -0.605391,-2.22657 -0.851038,-3.4096 l -0.171928,-0.82799 0.119548,-0.0732 c 0.10973,-0.0672 0.144561,-0.0365 0.42411,0.37366 0.713351,1.04671 2.020823,1.44341 3.246465,0.98499 0.523093,-0.19565 1.239353,-0.67662 1.524462,-1.02368 l 0.240049,-0.29221 -0.08367,-0.23707 c -0.121194,-0.34339 -0.421908,-0.71358 -1.152977,-1.41933 -0.713205,-0.68851 -0.857461,-0.89278 -0.810011,-1.14697 0.09584,-0.51343 1.066359,-0.43407 1.937513,0.15843 0.180014,0.12243 0.180935,0.12231 0.475,-0.0646 0.840017,-0.53387 1.53985,-0.6051 1.748024,-0.17792 0.07095,0.14559 0.07077,0.17941 -0.0019,0.36839 -0.04402,0.11445 -0.253608,0.37813 -0.465755,0.58594 -0.87037,0.85261 -1.127379,1.13597 -1.289943,1.42223 -0.09393,0.16539 -0.170777,0.34893 -0.170777,0.40786 0,0.0589 0.153106,0.30499 0.340236,0.54681 1.254697,1.62141 3.063724,1.48896 4.524448,-0.33128 0.214625,-0.26745 0.25383,-0.29182 0.375,-0.23312 0.175251,0.0849 0.167237,0.17916 -0.121571,1.4299 -0.494903,2.14328 -1.024894,3.76635 -1.624459,4.97482 -0.579129,1.16728 -1.39767,2.16978 -2.124505,2.60197 -0.626755,0.37268 -1.422254,0.51003 -2.086161,0.36021 z m 1.344007,-0.43513 c 1.473685,-0.50538 2.647877,-2.21186 3.573218,-5.19305 C 28.586134,701.53149 29,699.91367 29,699.71715 c 0,-0.17849 -0.163322,-0.1055 -0.493383,0.22049 -0.295389,0.29175 -0.32825,0.35088 -0.454998,0.81866 -0.16718,0.61701 -0.536284,1.61345 -0.597656,1.61345 -0.02471,0 -0.249848,-0.34513 -0.500313,-0.76696 l -0.455392,-0.76697 -0.261629,-0.0443 c -0.65703,-0.11115 -1.371836,-0.54127 -1.848183,-1.11211 -0.15371,-0.1842 -0.308639,-0.33491 -0.344286,-0.33491 -0.03565,0 -0.195281,0.12304 -0.354738,0.27344 -0.573295,0.54069 -1.387687,0.94636 -2.114422,1.05324 l -0.35,0.0515 -0.456931,0.77061 c -0.251312,0.42384 -0.478426,0.78025 -0.504696,0.79202 -0.04547,0.0204 -0.437378,-1.15094 -0.560843,-1.67624 -0.04858,-0.20669 -0.113204,-0.28864 -0.387481,-0.49135 -0.212074,-0.15673 -0.346385,-0.22014 -0.37755,-0.17823 -0.05885,0.0791 0.321166,1.72755 0.645498,2.8 0.857816,2.83648 2.045817,4.42797 3.667003,4.91244 0.392984,0.11744 1.125371,0.11435 1.476995,-0.006 z m 2.947373,-6.30225 c 0.215791,-0.62797 0.257001,-0.84497 0.168436,-0.88692 -0.125686,-0.0595 -1.015742,0.26133 -1.031577,0.37188 -0.02109,0.14728 0.494677,1.00352 0.604488,1.00352 0.06399,0 0.140341,-0.14419 0.258653,-0.48848 z m -7.297422,0.36981 c 0.130453,-0.12404 0.53232,-0.89475 0.509052,-0.97628 -0.01502,-0.0526 -0.181415,-0.12843 -0.393514,-0.17924 -0.202116,-0.0484 -0.389984,-0.0989 -0.417484,-0.1121 -0.0275,-0.0132 -0.08075,0.002 -0.118338,0.0345 -0.07738,0.0663 -0.03498,0.29499 0.172702,0.93165 0.114942,0.35236 0.149644,0.39462 0.247582,0.3015 z M 23.8,697.19464 v -0.60367 l -0.187838,-0.12885 c -0.340459,-0.23353 -0.824063,-0.4117 -1.117469,-0.4117 -0.489518,0 -0.443136,0.11202 0.355307,0.85807 0.26125,0.24411 0.563425,0.54419 0.6715,0.66684 0.108075,0.12264 0.21495,0.22299 0.2375,0.22299 0.02255,0 0.041,-0.27165 0.041,-0.60368 z m 0.57975,0.46187 c 0.05239,-0.078 0.2865,-0.32516 0.52025,-0.54926 1.01168,-0.96994 1.065111,-1.09085 0.461281,-1.04385 -0.324753,0.0253 -0.454342,0.0737 -0.7875,0.29435 l -0.398781,0.2641 -0.01485,0.49791 c -0.02088,0.70006 0.02863,0.82107 0.219598,0.53675 z M 10.028989,693.83734 9.6856595,693.37215 9.88033,693.12683 c 1.194114,-1.50484 2.911231,-2.69284 4.365981,-3.02063 0.599763,-0.13514 1.563035,-0.13611 2.13442,-0.002 1.024943,0.24032 2.050477,0.87151 3.031769,1.86598 0.185625,0.18812 0.3375,0.36921 0.3375,0.40244 0,0.0332 0.16875,0.2723 0.375,0.53128 0.20625,0.25897 0.375158,0.50569 0.375351,0.54826 2e-4,0.0426 -0.140171,0.24733 -0.311921,0.45504 l -0.312271,0.37766 -0.42558,-0.51824 c -0.234069,-0.28503 -0.464324,-0.53689 -0.511678,-0.55969 -0.04735,-0.0228 -0.262571,-0.20772 -0.478259,-0.41093 -0.495745,-0.46707 -1.20607,-0.92593 -1.785642,-1.15352 -0.610237,-0.23963 -1.639986,-0.29933 -2.3,-0.13335 -1.196948,0.30101 -2.486623,1.16501 -3.559622,2.38473 -0.197792,0.22484 -0.378396,0.4088 -0.401341,0.4088 -0.02294,0 -0.196217,-0.20933 -0.385048,-0.46518 z m 30.793696,-6.12282 c 0.87027,-1.97125 1.486386,-3.9934 1.853261,-6.08259 0.07126,-0.4058 0.148262,-0.7537 0.171113,-0.77311 0.107441,-0.0913 0.215967,-1.3721 0.239381,-2.82521 0.03559,-2.209 -0.123243,-3.81154 -0.590925,-5.96195 -0.333028,-1.53126 -1.21802,-4.33749 -1.531156,-4.85514 l -0.09777,-0.16164 -0.420792,0.14941 c -0.827621,0.29386 -1.759127,0.6873 -2.335202,0.98631 -0.594556,0.3086 -2.522198,1.60145 -2.551728,1.71142 -0.0089,0.0331 -0.143876,0.15643 -0.3,0.27416 -1.160349,0.87505 -2.504498,2.04812 -3.469784,3.02819 -0.897824,0.91156 -1.614079,1.73538 -1.614079,1.85647 0,0.0751 0.18028,0.2006 0.6,0.41775 0.33,0.17073 0.808156,0.4373 1.062568,0.59238 0.254413,0.15509 0.485983,0.28197 0.5146,0.28197 0.02862,0 0.214212,-0.18973 0.412432,-0.42162 1.12371,-1.31459 2.418142,-2.48749 3.702967,-3.3553 0.683696,-0.46178 1.26399,-0.79184 1.452276,-0.82603 0.08534,-0.0155 0.290157,-0.0922 0.455157,-0.17041 0.490607,-0.23261 1.176024,-0.46559 1.252965,-0.42589 0.07086,0.0366 0.45956,0.86267 0.667737,1.41917 0.30656,0.81949 0.63483,2.14159 0.754961,3.04059 0.03212,0.24033 0.08822,0.54468 0.12467,0.67633 0.103,0.372 0.142932,1.67817 0.07797,2.55056 -0.15279,2.05198 -0.617738,3.87125 -1.479545,5.78922 -0.178069,0.3963 -0.323762,0.75408 -0.323762,0.79507 0,0.041 0.07985,0.28772 0.177452,0.5483 0.205511,0.54869 0.584254,1.77927 0.675611,2.19514 0.03452,0.15714 0.09212,0.28571 0.128008,0.28571 0.03588,0 0.212109,-0.33267 0.391614,-0.73926 z M 7.8021895,687.59664 c 0.119577,-0.43446 0.385302,-1.24168 0.5905,-1.79384 l 0.373087,-1.00392 -0.136104,-0.307 c -0.292378,-0.6595 -0.830369,-2.22383 -0.9957065,-2.89524 -0.491447,-1.99569 -0.591254,-4.14661 -0.2850365,-6.14278 0.104736,-0.68276 0.139678,-0.83606 0.224105,-0.98327 0.031809,-0.0555 0.132665,-0.37311 0.224125,-0.70588 0.2925785,-1.06454 0.8717955,-2.52519 1.053085,-2.65564 0.068547,-0.0493 0.250898,-0.005 0.7002185,0.16842 0.334144,0.12931 0.663341,0.23512 0.731548,0.23512 0.156078,0 1.045553,0.48757 1.724928,0.94553 1.1188,0.75417 2.433181,1.91479 3.375736,2.98082 0.264656,0.29933 0.508608,0.57161 0.542117,0.60506 0.03981,0.0397 0.318964,-0.0798 0.805566,-0.34509 0.409553,-0.22326 0.829017,-0.44205 0.932142,-0.48621 0.103125,-0.0442 0.1875,-0.10789 0.1875,-0.14163 0,-0.0859 -0.836184,-1.01223 -1.725,-1.91087 -0.898165,-0.90811 -1.954923,-1.8465 -2.875,-2.55299 -0.37125,-0.28506 -0.70875,-0.57337 -0.75,-0.64068 -0.122214,-0.19941 -2.073719,-1.49878 -2.75,-1.83103 -0.7065185,-0.3471 -2.34677,-0.99266 -2.5221725,-0.99266 -0.1532555,0 -0.1708475,0.0336 -0.546472,1.04497 -0.8463995,2.27884 -1.363224,4.44392 -1.643984,6.88696 -0.14656,1.27529 -0.1545909,3.70352 -0.016201,4.89845 0.052894,0.45672 0.1260805,0.8706 0.162637,0.91975 0.036556,0.0492 0.153666,0.55279 0.260244,1.1192 0.25416,1.35073 0.575756,2.52748 1.059259,3.87595 0.3878555,1.08171 0.9819955,2.49841 1.047791,2.49841 0.018521,0 0.1315105,-0.35546 0.251088,-0.78991 z m 31.7958485,-3.20572 c 1.638952,-3.64822 1.881997,-7.58879 0.692474,-11.22732 -0.233057,-0.71288 -0.632987,-1.64085 -0.740503,-1.71822 -0.09963,-0.0717 -1.064794,0.30591 -1.800009,0.70422 -1.563967,0.84729 -3.443691,2.4131 -4.7875,3.98798 -0.171875,0.20143 -0.3125,0.40621 -0.3125,0.45508 0,0.0489 0.230625,0.26266 0.5125,0.4751 2.363963,1.78162 4.452118,4.44064 5.762388,7.33771 0.153937,0.34036 0.282239,0.55251 0.334143,0.55251 0.05222,0 0.181134,-0.21564 0.339007,-0.56706 z M 9.3988565,683.71658 c 1.3901895,-2.78594 3.4309175,-5.23389 5.7229895,-6.86498 0.290036,-0.2064 0.540975,-0.40494 0.557643,-0.4412 0.0429,-0.0933 -0.08704,-0.27091 -0.629489,-0.86036 -1.637312,-1.77918 -3.458905,-3.13862 -5.219869,-3.89556 -0.8548225,-0.36743 -0.8892195,-0.36504 -1.0990895,0.0766 -0.8059085,1.69595 -1.282368,3.95737 -1.2801255,6.07586 0.00199,1.8849 0.29692,3.50928 0.9757655,5.37429 0.316555,0.86968 0.488173,1.23893 0.575829,1.23893 0.024889,0 0.203245,-0.31662 0.396346,-0.70359 z m -8.87356345,19.64207 c -0.10103926,-0.41027 -0.16253318,-0.78989 -0.13205483,-0.81522 0.0589444,-0.049 6.20596828,-2.25772 6.28334028,-2.25772 0.04055,0 0.1016265,0.14524 0.1464845,0.34834 0.080809,0.36587 0.095674,0.52561 0.048909,0.52561 -0.03175,0 -5.7171601,2.04256 -6.0868096,2.18677 -0.1845826,0.072 -0.2444523,0.0748 -0.25986985,0.0122 z M 44.2,702.11736 c -1.69125,-0.61223 -3.08263,-1.12121 -3.091954,-1.13105 -0.02204,-0.0233 0.09657,-0.73631 0.137161,-0.82462 0.02732,-0.0594 6.195156,2.10902 6.339151,2.22867 0.0324,0.0269 0.02231,0.18491 -0.02857,0.44748 -0.06441,0.33241 -0.09693,0.40466 -0.179717,0.39927 -0.05559,-0.004 -1.484822,-0.50751 -3.176071,-1.11975 z M 0.05789474,698.57143 c 0,-0.33277 0.01134868,-0.56723 0.02521929,-0.52101 0.01980335,0.066 0.70616962,0.084 3.19605267,0.084 H 6.45 v 0.43698 0.43697 H 3.2791667 c -2.48988305,0 -3.17624932,0.018 -3.19605266,0.084 -0.01387062,0.0462 -0.0252193,-0.18824 -0.0252193,-0.52101 z m 44.67732926,0.31933 -3.189776,-0.0178 0.01478,-0.45328 0.01478,-0.45328 h 3.15 c 2.042177,0 3.162919,-0.0237 3.186735,-0.0672 0.0202,-0.037 0.03708,0.18235 0.0375,0.48739 4e-4,0.30505 -0.0049,0.54729 -0.01174,0.53833 -0.0069,-0.009 -1.447899,-0.0243 -3.202276,-0.0341 z M 3.1323356,695.44523 c -1.6184654,-0.58683 -2.95486183,-1.08336 -2.96976984,-1.1034 -0.0276458,-0.0372 0.1125254,-0.76772 0.15939435,-0.83074 0.0316283,-0.0425 5.93414889,2.06989 6.00043539,2.14745 0.069663,0.0815 -0.084975,0.82526 -0.1748565,0.84097 -0.039897,0.007 -1.396738,-0.46745 -3.0152034,-1.05428 z m 38.6533694,0.89364 c -0.06998,-0.16378 -0.149288,-0.76726 -0.107769,-0.82001 0.04871,-0.0619 5.827496,-2.15752 5.94946,-2.15752 0.03957,0 0.101378,0.14782 0.145667,0.34834 0.0811,0.3672 0.09567,0.52561 0.04834,0.52561 -0.02298,0 -5.630258,2.00908 -5.929698,2.1246 -0.04581,0.0177 -0.09351,0.008 -0.106003,-0.021 z"
       id="path4548"
       inkscape:connector-curvature="0" />
    <path
       style="fill:#343434;stroke-width:0.0579771"
       d="m 22.725,713.86555 c 0.07357,-0.0425 0.03112,-0.059 -0.160587,-0.0625 -0.429772,-0.008 -1.761986,-0.25858 -2.524653,-0.47526 -2.761532,-0.78459 -5.318667,-2.37826 -7.43976,-4.63667 -0.625299,-0.66578 -1.996053,-2.4946 -2.470561,-3.29615 -1.2998615,-2.19577 -2.332733,-5.05163 -2.7521915,-7.60974 -0.244618,-1.49182 -0.293896,-2.13259 -0.2962725,-3.85245 -0.00218,-1.58027 0.023594,-2.00303 0.2015205,-3.30494 l 0.084168,-0.61587 -0.352545,-0.72867 C 3.939144,682.92768 3.384508,676.161 5.4087515,669.69749 c 0.3507105,-1.11984 1.0676345,-2.85428 1.353217,-3.27382 0.055325,-0.0813 0.1654605,-0.16693 0.244747,-0.19035 0.079286,-0.0234 0.131383,-0.0704 0.11577,-0.10433 -0.015613,-0.034 0.019268,-0.0617 0.077515,-0.0617 0.058246,0 0.091996,0.0303 0.075,0.0672 -0.016996,0.037 0.011577,0.0672 0.063495,0.0672 0.051918,0 0.4455665,0.13552 0.874775,0.30116 2.6077975,1.00639 5.4809475,2.9565 8.0617305,5.47179 0.606139,0.59076 1.766555,1.84233 2.214156,2.38808 0.200285,0.24421 0.387787,0.44401 0.416669,0.44401 0.02888,0 0.225013,-0.0587 0.435845,-0.13035 1.351531,-0.45958 2.61475,-0.67788 4.18333,-0.72295 1.831639,-0.0526 3.072481,0.10438 4.65987,0.58956 0.37957,0.11602 0.750076,0.22588 0.823343,0.24413 0.111558,0.0278 0.208713,-0.0564 0.597613,-0.51788 2.406316,-2.85539 5.380329,-5.33648 8.219174,-6.8569 0.707718,-0.37903 1.990971,-0.94242 2.535144,-1.11301 0.211829,-0.0664 0.373626,-0.14579 0.359549,-0.17641 -0.01408,-0.0306 0.02206,-0.0557 0.08031,-0.0557 0.05825,0 0.09406,0.0258 0.07959,0.0572 -0.01447,0.0315 0.05732,0.0915 0.15955,0.13335 0.153928,0.063 0.23288,0.17159 0.459515,0.63183 0.793056,1.61052 1.527957,3.95385 1.902777,6.06726 0.287152,1.61911 0.367014,2.58743 0.368796,4.47166 0.0017,1.83088 -0.04758,2.50463 -0.302441,4.13183 -0.404143,2.58036 -1.348407,5.4913 -2.583467,7.96422 l -0.249421,0.4994 0.106364,0.87875 c 0.228141,1.88481 0.251855,3.47233 0.0789,5.2821 -0.760802,7.9611 -5.586511,14.69266 -12.120166,16.90688 -1.071834,0.36324 -2.616871,0.69896 -3.273507,0.71129 -0.186587,0.004 -0.225685,0.0196 -0.151493,0.0625 0.05898,0.0341 -0.464028,0.0578 -1.275,0.0578 -0.810972,0 -1.33398,-0.0237 -1.275,-0.0578 z m 2.605239,-1.27758 c 3.40756,-0.35673 6.555666,-1.90471 9.100889,-4.47508 C 34.744008,707.79692 35,707.51443 35,707.48513 c 0,-0.0293 0.106875,-0.143 0.2375,-0.25267 1.181665,-0.99212 2.808795,-3.93752 3.76332,-6.81229 0.967885,-2.91502 1.235462,-5.70518 0.870352,-9.07563 -0.244213,-2.25443 -0.796108,-4.40314 -1.415442,-5.5108 -0.113152,-0.20236 -0.20573,-0.40368 -0.20573,-0.44736 0,-0.0437 -0.154098,-0.3924 -0.342442,-0.77492 -1.208842,-2.45513 -2.882269,-4.59127 -4.805233,-6.13389 -2.104984,-1.68865 -4.410897,-2.73901 -6.977325,-3.1782 -1.066954,-0.18259 -3.320623,-0.16704 -4.408485,0.0304 -3.742991,0.67941 -6.815507,2.56103 -9.449425,5.78684 -2.350083,2.8782 -3.836951,6.26643 -4.064595,9.26227 -0.024903,0.32774 -0.083353,0.94378 -0.129887,1.36899 -0.1030395,0.94153 -0.1192955,3.10865 -0.030257,4.03361 0.1817435,1.888 0.589733,3.74163 1.1802595,5.36232 0.7301485,2.00387 1.4520265,3.34899 2.6997195,5.03055 1.618508,2.18131 3.24424,3.612 5.452669,4.79848 1.703753,0.91534 3.345943,1.4045 5.5,1.63829 0.478196,0.0519 1.862872,0.0388 2.455239,-0.0232 z m -1.947251,-4.50714 c -1.756188,-0.39632 -3.093374,-2.06045 -4.000145,-4.97822 -0.252154,-0.81136 -0.605391,-2.22657 -0.851038,-3.4096 l -0.171928,-0.82799 0.119548,-0.0732 c 0.10973,-0.0672 0.144561,-0.0365 0.42411,0.37366 0.713351,1.04671 2.020823,1.44341 3.246465,0.98499 0.523093,-0.19565 1.239353,-0.67662 1.524462,-1.02368 l 0.240049,-0.29221 -0.08367,-0.23707 c -0.121194,-0.34339 -0.421908,-0.71358 -1.152977,-1.41933 -0.713205,-0.68851 -0.857461,-0.89278 -0.810011,-1.14697 0.09584,-0.51343 1.066359,-0.43407 1.937513,0.15843 0.180014,0.12243 0.180935,0.12231 0.475,-0.0646 0.840017,-0.53387 1.53985,-0.6051 1.748024,-0.17792 0.07095,0.14559 0.07077,0.17941 -0.0019,0.36839 -0.04402,0.11445 -0.253608,0.37813 -0.465755,0.58594 -0.87037,0.85261 -1.127379,1.13597 -1.289943,1.42223 -0.09393,0.16539 -0.170777,0.34893 -0.170777,0.40786 0,0.0589 0.153106,0.30499 0.340236,0.54681 1.254697,1.62141 3.063724,1.48896 4.524448,-0.33128 0.214625,-0.26745 0.25383,-0.29182 0.375,-0.23312 0.175251,0.0849 0.167237,0.17916 -0.121571,1.4299 -0.494903,2.14328 -1.024894,3.76635 -1.624459,4.97482 -0.579129,1.16728 -1.39767,2.16978 -2.124505,2.60197 -0.626755,0.37268 -1.422254,0.51003 -2.086161,0.36021 z m 1.344007,-0.43513 c 1.473685,-0.50538 2.647877,-2.21186 3.573218,-5.19305 C 28.586134,701.53149 29,699.91367 29,699.71715 c 0,-0.17849 -0.163322,-0.1055 -0.493383,0.22049 -0.295389,0.29175 -0.32825,0.35088 -0.454998,0.81866 -0.16718,0.61701 -0.536284,1.61345 -0.597656,1.61345 -0.02471,0 -0.249848,-0.34513 -0.500313,-0.76696 l -0.455392,-0.76697 -0.261629,-0.0443 c -0.65703,-0.11115 -1.371836,-0.54127 -1.848183,-1.11211 -0.15371,-0.1842 -0.308639,-0.33491 -0.344286,-0.33491 -0.03565,0 -0.195281,0.12304 -0.354738,0.27344 -0.573295,0.54069 -1.387687,0.94636 -2.114422,1.05324 l -0.35,0.0515 -0.456931,0.77061 c -0.251312,0.42384 -0.478426,0.78025 -0.504696,0.79202 -0.04547,0.0204 -0.437378,-1.15094 -0.560843,-1.67624 -0.04858,-0.20669 -0.113204,-0.28864 -0.387481,-0.49135 -0.212074,-0.15673 -0.346385,-0.22014 -0.37755,-0.17823 -0.05885,0.0791 0.321166,1.72755 0.645498,2.8 0.857816,2.83648 2.045817,4.42797 3.667003,4.91244 0.392984,0.11744 1.125371,0.11435 1.476995,-0.006 z m 2.947373,-6.30225 c 0.215791,-0.62797 0.257001,-0.84497 0.168436,-0.88692 -0.125686,-0.0595 -1.015742,0.26133 -1.031577,0.37188 -0.02109,0.14728 0.494677,1.00352 0.604488,1.00352 0.06399,0 0.140341,-0.14419 0.258653,-0.48848 z m -7.297422,0.36981 c 0.130453,-0.12404 0.53232,-0.89475 0.509052,-0.97628 -0.01502,-0.0526 -0.181415,-0.12843 -0.393514,-0.17924 -0.202116,-0.0484 -0.389984,-0.0989 -0.417484,-0.1121 -0.0275,-0.0132 -0.08075,0.002 -0.118338,0.0345 -0.07738,0.0663 -0.03498,0.29499 0.172702,0.93165 0.114942,0.35236 0.149644,0.39462 0.247582,0.3015 z m 3.462303,-4.46956 -0.01425,-0.68908 -0.337057,-0.22187 c -0.564876,-0.37184 -1.298411,-0.49907 -1.372887,-0.23811 -0.03966,0.13896 0.04189,0.23885 0.732626,0.8973 0.349784,0.33344 0.688571,0.68153 0.75286,0.77354 0.219078,0.31354 0.254385,0.23637 0.238707,-0.52178 z m 0.627777,0.39834 c 0.141886,-0.1599 0.449224,-0.47437 0.682974,-0.69881 0.591419,-0.56788 0.723303,-0.74044 0.652972,-0.85438 -0.08488,-0.13752 -0.342687,-0.164 -0.677466,-0.0696 -0.361453,0.10193 -0.876562,0.39638 -0.963006,0.55048 -0.06571,0.11714 -0.09046,1.2358 -0.02917,1.31821 0.05146,0.0692 0.05908,0.0636 0.333692,-0.24591 z m 3.041989,-3.69704 -0.313097,-0.42474 0.445458,-0.57738 c 1.896204,-2.45774 4.111425,-3.3498 6.389231,-2.5729 0.270655,0.0923 0.539362,0.16784 0.597126,0.16784 0.265786,0 1.380146,0.7321 2.09425,1.37586 C 37.361685,692.49037 38,693.21521 38,693.36493 c 0,0.0644 -0.158454,0.3059 -0.352119,0.53676 l -0.35212,0.41973 -0.18538,-0.21049 c -0.745786,-0.8468 -1.558134,-1.55135 -2.260381,-1.96043 -0.20625,-0.12014 -0.382379,-0.24427 -0.391399,-0.27583 -0.02435,-0.0852 -0.62001,-0.31872 -1.100344,-0.43134 -1.773738,-0.41588 -3.465976,0.37533 -5.048057,2.36024 -0.2482,0.3114 -0.459557,0.56618 -0.469681,0.56618 -0.01012,0 -0.159301,-0.19114 -0.331504,-0.42475 z m -8.009583,-0.12592 c -0.771926,-0.95611 -1.755932,-1.7856 -2.524432,-2.12801 -1.491835,-0.66471 -3.205456,-0.36822 -4.774161,0.82601 -0.511249,0.38921 -1.257865,1.10597 -1.559346,1.497 l -0.183506,0.23802 -0.141494,-0.13739 c -0.07782,-0.0756 -0.237221,-0.26971 -0.3542235,-0.43143 l -0.2127305,-0.29404 0.1877305,-0.23757 c 1.1796865,-1.49287 2.8475955,-2.6412 4.3317805,-2.98237 0.897951,-0.20641 2.073563,-0.0944 2.929632,0.27926 0.555563,0.24246 1.314825,0.7557 1.835917,1.24103 0.497468,0.46333 1.465401,1.62964 1.465401,1.76574 0,0.0461 -0.14088,0.25115 -0.313068,0.45567 l -0.313069,0.37186 z m 21.35014,-6.03196 c 0.481338,-1.09366 1.094452,-2.81726 1.377038,-3.87115 0.299056,-1.11532 0.702355,-3.26104 0.79874,-4.24963 0.0969,-0.99389 0.09636,-3.0311 -0.0011,-4.15138 -0.205811,-2.36564 -0.751763,-4.78767 -1.621976,-7.19563 -0.187072,-0.51765 -0.384129,-1.01391 -0.437905,-1.10281 l -0.09777,-0.16164 -0.420792,0.14941 c -1.650872,0.58617 -2.582985,1.05571 -3.870793,1.94986 -1.579105,1.0964 -2.87859,2.13931 -4.075,3.27041 -1.047833,0.99064 -2.45,2.52254 -2.45,2.67668 0,0.0467 0.285585,0.2293 0.6375,0.40756 0.350625,0.1776 0.848912,0.45532 1.107303,0.61714 0.258392,0.16183 0.503397,0.29423 0.544455,0.29423 0.04106,0 0.212147,-0.16023 0.380197,-0.35605 2.010429,-2.34276 4.224422,-3.99996 6.396173,-4.78762 0.242345,-0.0879 0.472897,-0.14316 0.512337,-0.12281 0.07086,0.0366 0.45956,0.86267 0.667737,1.41917 0.486759,1.3012 0.855446,3.18348 0.931351,4.75487 0.110166,2.28066 -0.485768,5.12495 -1.547383,7.38541 -0.153819,0.32751 -0.27967,0.63315 -0.27967,0.67919 0,0.046 0.120931,0.42849 0.268736,0.84989 0.147805,0.4214 0.365223,1.12165 0.48315,1.5561 0.124428,0.4584 0.241839,0.78992 0.27976,0.78992 0.03594,0 0.224006,-0.36051 0.417926,-0.80112 z M 7.8582145,687.64222 C 7.988366,687.1827 8.253512,686.37738 8.447427,685.85264 8.641342,685.32789 8.8,684.85275 8.8,684.79677 c 0,-0.056 -0.069566,-0.26041 -0.15459,-0.4543 -0.4944215,-1.12745 -0.9194815,-2.49726 -1.1474805,-3.69791 -0.320341,-1.68693 -0.327369,-3.92577 -0.017587,-5.60254 0.2354535,-1.27445 1.092099,-3.73305 1.3705015,-3.93338 0.122665,-0.0883 1.40989,0.40853 2.173317,0.83878 1.482097,0.83528 3.063434,2.14107 4.371922,3.61013 0.290849,0.32654 0.560831,0.59371 0.599962,0.59371 0.05661,0 0.845259,-0.40452 1.841455,-0.94454 0.06188,-0.0335 0.1125,-0.0899 0.1125,-0.12517 0,-0.0353 -0.219375,-0.31094 -0.4875,-0.61253 -1.195458,-1.34467 -2.696999,-2.76954 -3.9625,-3.76017 -0.34375,-0.26908 -0.74875,-0.58839 -0.9,-0.70957 -0.639263,-0.51218 -2.271208,-1.57938 -2.85,-1.86375 -0.706476,-0.34709 -2.346755,-0.99267 -2.5221725,-0.99267 -0.1532555,0 -0.1708475,0.0336 -0.546472,1.04497 -0.8454795,2.27637 -1.3601585,4.43122 -1.6449265,6.88696 -0.1504127,1.2971 -0.1499954,3.92482 7.95e-4,5.00924 0.226484,1.62879 0.63691,3.49548 1.0703745,4.86827 0.442449,1.40124 1.344955,3.60118 1.4567925,3.55105 0.031451,-0.0141 0.1636715,-0.4016 0.2938235,-0.86113 z m 31.7398235,-3.2513 c 1.638952,-3.64822 1.881997,-7.58879 0.692474,-11.22732 -0.233057,-0.71288 -0.632987,-1.64085 -0.740503,-1.71822 -0.09963,-0.0717 -1.064794,0.30591 -1.800009,0.70422 -1.563967,0.84729 -3.443691,2.4131 -4.7875,3.98798 -0.171875,0.20143 -0.3125,0.40621 -0.3125,0.45508 0,0.0489 0.230625,0.26266 0.5125,0.4751 2.363963,1.78162 4.452118,4.44064 5.762388,7.33771 0.153937,0.34036 0.282239,0.55251 0.334143,0.55251 0.05222,0 0.181134,-0.21564 0.339007,-0.56706 z M 9.3988565,683.71658 c 1.3901895,-2.78594 3.4309175,-5.23389 5.7229895,-6.86498 0.290036,-0.2064 0.540975,-0.40494 0.557643,-0.4412 0.0429,-0.0933 -0.08704,-0.27091 -0.629489,-0.86036 -1.637312,-1.77918 -3.458905,-3.13862 -5.219869,-3.89556 -0.8548225,-0.36743 -0.8892195,-0.36504 -1.0990895,0.0766 -0.8059085,1.69595 -1.282368,3.95737 -1.2801255,6.07586 0.00199,1.8849 0.29692,3.50928 0.9757655,5.37429 0.316555,0.86968 0.488173,1.23893 0.575829,1.23893 0.024889,0 0.203245,-0.31662 0.396346,-0.70359 z m -8.87356345,19.64207 c -0.10103926,-0.41027 -0.16253318,-0.78989 -0.13205483,-0.81522 0.0589444,-0.049 6.20596828,-2.25772 6.28334028,-2.25772 0.04055,0 0.1016265,0.14524 0.1464845,0.34834 0.080809,0.36587 0.095674,0.52561 0.048909,0.52561 -0.03175,0 -5.7171601,2.04256 -6.0868096,2.18677 -0.1845826,0.072 -0.2444523,0.0748 -0.25986985,0.0122 z M 44.2,702.11736 c -1.69125,-0.61223 -3.08263,-1.12121 -3.091954,-1.13105 -0.02204,-0.0233 0.09657,-0.73631 0.137161,-0.82462 0.02732,-0.0594 6.195156,2.10902 6.339151,2.22867 0.0324,0.0269 0.02231,0.18491 -0.02857,0.44748 -0.06441,0.33241 -0.09693,0.40466 -0.179717,0.39927 -0.05559,-0.004 -1.484822,-0.50751 -3.176071,-1.11975 z M 0.05789474,698.57143 c 0,-0.33277 0.01134868,-0.56723 0.02521929,-0.52101 0.01980335,0.066 0.70616962,0.084 3.19605267,0.084 H 6.45 v 0.43698 0.43697 H 3.2791667 c -2.48988305,0 -3.17624932,0.018 -3.19605266,0.084 -0.01387062,0.0462 -0.0252193,-0.18824 -0.0252193,-0.52101 z m 44.67732926,0.31933 -3.189776,-0.0178 0.01478,-0.45328 0.01478,-0.45328 h 3.15 c 2.042177,0 3.162919,-0.0237 3.186735,-0.0672 0.0202,-0.037 0.03708,0.18235 0.0375,0.48739 4e-4,0.30505 -0.0049,0.54729 -0.01174,0.53833 -0.0069,-0.009 -1.447899,-0.0243 -3.202276,-0.0341 z M 3.1323356,695.44523 c -1.6184654,-0.58683 -2.95486183,-1.08336 -2.96976984,-1.1034 -0.0276458,-0.0372 0.1125254,-0.76772 0.15939435,-0.83074 0.0316283,-0.0425 5.93414889,2.06989 6.00043539,2.14745 0.069663,0.0815 -0.084975,0.82526 -0.1748565,0.84097 -0.039897,0.007 -1.396738,-0.46745 -3.0152034,-1.05428 z m 38.6533694,0.89364 c -0.06998,-0.16378 -0.149288,-0.76726 -0.107769,-0.82001 0.04871,-0.0619 5.827496,-2.15752 5.94946,-2.15752 0.03957,0 0.101378,0.14782 0.145667,0.34834 0.0811,0.3672 0.09567,0.52561 0.04834,0.52561 -0.02298,0 -5.630258,2.00908 -5.929698,2.1246 -0.04581,0.0177 -0.09351,0.008 -0.106003,-0.021 z"
       id="path4546"
       inkscape:connector-curvature="0" />
  </g>
</svg>
